<?xml version="1.0" encoding="utf-8"?>
<!-- Generator: Adobe Illustrator 25.2.0, SVG Export Plug-In . SVG Version: 6.00 Build 0)  -->
<svg version="1.1" xmlns="http://www.w3.org/2000/svg" xmlns:xlink="http://www.w3.org/1999/xlink" x="0px" y="0px"
	 viewBox="0 0 580.7 112.4" style="enable-background:new 0 0 580.7 112.4;" xml:space="preserve">
<style type="text/css">
	.st0{opacity:0.43;fill:url(#SVGID_1_);}
	.st1{fill:#54B9EA;}
	.st2{fill:#263C8A;}
	.st3{fill:none;stroke:#FFFFFF;stroke-width:2;stroke-miterlimit:10;}
	.st4{fill:none;}
	.st5{fill:#FFFFFF;}
</style>
<g id="BACKGROUND">
</g>
<g id="OBJECTS">
	<g>
		<path class="st4" d="M443.6,38.4c-5.6,0-10.1,4.5-10.1,10.1c0,5.6,4.5,10.1,10.1,10.1s10.1-4.5,10.1-10.1
			C453.7,43,449.2,38.4,443.6,38.4z"/>
		<path class="st4" d="M141.4,38.3c-3,0-5.4,1-7.3,3c-1.9,2-2.8,4.5-2.8,7.6c0,3.1,0.9,5.7,2.8,7.6c1.9,2,4.3,3,7.3,3s5.4-1,7.3-3
			c1.9-2,2.8-4.5,2.8-7.6c0-3.1-0.9-5.7-2.8-7.6C146.8,39.3,144.4,38.3,141.4,38.3z"/>
		<path class="st4" d="M40,38.3c-2.9,0-5.3,1-7.2,2.9C31,43,30,45.6,30,48.9c0,3.3,0.9,5.9,2.8,7.8c1.9,1.9,4.3,2.9,7.2,2.9
			c3,0,5.4-1,7.2-3c1.8-2,2.8-4.5,2.8-7.6c-0.1-3.1-1-5.6-2.8-7.6C45.4,39.3,43,38.3,40,38.3z"/>
		<path class="st4" d="M526.7,90.7c-0.6,0.5-1,1.1-1,1.9c0,0.8,0.3,1.4,0.9,1.8c0.6,0.5,1.4,0.7,2.3,0.7c1.1,0,1.9-0.3,2.7-0.9
			c0.7-0.6,1.1-1.4,1.1-2.3v-1.3c-1.2-0.4-2.3-0.6-3.3-0.6C528.2,90,527.3,90.3,526.7,90.7z"/>
		<path class="st4" d="M90.7,38.3c-3,0-5.4,1-7.3,3c-1.9,2-2.8,4.5-2.8,7.6c0,3.1,0.9,5.7,2.8,7.6c1.9,2,4.3,3,7.3,3
			c3,0,5.4-1,7.3-3c1.9-2,2.8-4.5,2.8-7.6c0-3.1-0.9-5.7-2.8-7.6C96.1,39.3,93.6,38.3,90.7,38.3z"/>
		<path class="st4" d="M552.5,83.2c-1.2,0-2.3,0.4-3.1,1.1c-0.8,0.7-1.3,1.8-1.4,3.1h8.9c-0.1-1.3-0.6-2.3-1.4-3.1
			C554.8,83.6,553.8,83.2,552.5,83.2z"/>
		<path class="st4" d="M546.3,38.8c-1.7-1.6-4-2.4-6.7-2.4s-5,0.8-6.7,2.4c-1.8,1.6-2.8,3.8-3,6.6h19.4
			C549.1,42.6,548.1,40.4,546.3,38.8z"/>
		<path class="st1" d="M443.6,25.8c-13.9,0-22.4,11.3-22.4,25.2c0,11.9,14.2,25.7,21.6,29.7c0.5,0.3,1.1,0.3,1.6,0
			c7.4-4,21.5-17.7,21.5-29.7C466,37.1,457.5,25.8,443.6,25.8z M443.6,58.6c-5.6,0-10.1-4.5-10.1-10.1c0-5.6,4.5-10.1,10.1-10.1
			s10.1,4.5,10.1,10.1C453.7,54.1,449.2,58.6,443.6,58.6z"/>
		<path class="st5" d="M52.9,30.3c-3.2-1.9-6.7-2.9-10.6-2.9c-4.2,0-8.1,1.3-11.7,3.9V19.1c0-2.7-2.1-4.9-4.8-5l-0.7,0L18,21.2v43.1
			c0,2.8,2.2,5,5,5h5.7v-4.5c3.9,3.7,8.4,5.5,13.6,5.5c3.9,0,7.5-1,10.6-2.9c3.1-1.9,5.6-4.5,7.3-7.7c1.7-3.3,2.6-6.9,2.6-10.8
			c0-4-0.9-7.6-2.6-10.9C58.5,34.8,56.1,32.2,52.9,30.3z M47.2,56.5c-1.8,2-4.3,3-7.2,3c-2.9,0-5.3-1-7.2-2.9
			C31,54.8,30,52.2,30,48.9c0-3.3,0.9-5.9,2.8-7.8c1.9-1.9,4.3-2.9,7.2-2.9c3,0,5.3,1,7.2,3c1.8,2,2.8,4.5,2.8,7.6
			C50,52,49.1,54.5,47.2,56.5z"/>
		<polygon class="st5" points="18,13.9 18,18.8 22.7,14 		"/>
		<path class="st5" d="M90.7,27.5c-4.5,0-8.5,0.9-12,2.8c-3.5,1.8-6.2,4.4-8.1,7.7c-1.9,3.3-2.9,6.9-2.9,11c0,4.1,1,7.7,2.9,11
			c1.9,3.3,4.6,5.8,8.1,7.7c3.5,1.8,7.5,2.8,12,2.8c6.7,0,12.2-2,16.5-6.1c4.3-4,6.4-9.2,6.4-15.4c0-6.2-2.1-11.3-6.4-15.4
			C102.9,29.5,97.4,27.5,90.7,27.5z M98,56.5c-1.9,2-4.3,3-7.3,3c-3,0-5.4-1-7.3-3c-1.9-2-2.8-4.5-2.8-7.6c0-3.1,0.9-5.7,2.8-7.6
			c1.9-2,4.3-3,7.3-3c3,0,5.4,1,7.3,3c1.9,2,2.8,4.5,2.8,7.6C100.8,52,99.9,54.6,98,56.5z"/>
		<path class="st5" d="M141.4,27.5c-4.5,0-8.5,0.9-12,2.8c-3.5,1.8-6.2,4.4-8.1,7.7c-1.9,3.3-2.9,6.9-2.9,11c0,4.1,1,7.7,2.9,11
			c1.9,3.3,4.6,5.8,8.1,7.7c3.5,1.8,7.5,2.8,12,2.8c6.7,0,12.2-2,16.5-6.1c4.3-4,6.4-9.2,6.4-15.4c0-6.2-2.1-11.3-6.4-15.4
			C153.6,29.5,148.1,27.5,141.4,27.5z M148.7,56.5c-1.9,2-4.3,3-7.3,3s-5.4-1-7.3-3c-1.9-2-2.8-4.5-2.8-7.6c0-3.1,0.9-5.7,2.8-7.6
			c1.9-2,4.3-3,7.3-3s5.4,1,7.3,3c1.9,2,2.8,4.5,2.8,7.6C151.5,52,150.6,54.6,148.7,56.5z"/>
		<path class="st5" d="M211.2,58.6c-0.5,0.4-1.2,0.6-2,0.6c-1.2,0-2.5-0.8-3.9-2.3L196,46.5l15.3-17.3l-0.5-0.8h-13.2l-13.4,16V14.4
			l-1-0.8l-11.7,1.5v54.2h12.7V55.6l2.2-2.6l9.5,11.5c3.2,3.8,7,5.7,11.4,5.7c2.3,0,4.2-0.5,5.8-1.5l0.5-0.9l-1.6-8.9L211.2,58.6z"
			/>
		<path class="st5" d="M270.5,27.5c-5.6,0-10.3,1.9-14.1,5.7c-3.2-3.8-7.5-5.7-13.1-5.7c-4.9,0-9.2,1.5-12.9,4.6
			c-1.7-3.1-4.6-4.6-8.6-4.6c-2.3,0-4.4,0.6-6.3,1.7l-0.5,0.9l1.6,8.4l0.8,0.4c0.3-0.3,0.7-0.4,1.2-0.4c1.2,0,1.8,1,1.8,3v27.8h12.7
			V46c0-2.4,0.7-4.3,2-5.7c1.4-1.4,3.2-2.1,5.4-2.1s4,0.7,5.2,2.1s1.9,3.3,1.9,5.7v23.3h12.7V46c0-2.4,0.7-4.3,2-5.7
			c1.4-1.4,3.2-2.1,5.4-2.1c2.2,0,4,0.7,5.2,2.1c1.2,1.4,1.9,3.3,1.9,5.7v23.3h12.7V45.1c0-5.3-1.6-9.6-4.7-12.8
			C279.7,29.1,275.6,27.5,270.5,27.5z"/>
		<path class="st5" d="M327.9,28.5l-10.8,24.9l-6-13.7c-0.9-2.1-1.8-3.8-2.6-5.2c-0.8-1.4-1.7-2.6-2.8-3.7c-1.1-1.1-2.2-1.9-3.5-2.4
			c-1.3-0.5-2.8-0.8-4.5-0.8c-2.4,0-4.4,0.5-5.9,1.5l-0.4,0.9l1.6,8.9l0.8,0.4c0.6-0.5,1.3-0.7,2.2-0.6c0.7,0,1.3,0.3,1.9,0.9
			c0.6,0.6,1.3,1.7,2.1,3.3L311,65.9l-1.2,2.3c-1.2,2.4-3.1,3.6-5.7,3.6c-1.1,0-2.2-0.3-3.4-0.9l-0.8,0.4l-2.4,7.7l0.5,0.9
			c1.9,1.1,4.4,1.7,7.3,1.7c6.9,0,12-3.6,15.2-10.8l18.7-41.5l-0.5-0.8H327.9z"/>
		<path class="st5" d="M396.3,27.5c-5.6,0-10.3,1.9-14.1,5.7c-3.2-3.8-7.5-5.7-13.1-5.7c-4.9,0-9.2,1.5-12.9,4.6
			c-1.7-3.1-4.6-4.6-8.6-4.6c-2.3,0-4.4,0.6-6.3,1.7l-0.5,0.9l1.6,8.4l0.8,0.4c0.3-0.3,0.7-0.4,1.2-0.4c1.2,0,1.8,1,1.8,3v27.8h12.7
			V46c0-2.4,0.7-4.3,2-5.7c1.4-1.4,3.2-2.1,5.4-2.1s4,0.7,5.2,2.1c1.2,1.4,1.9,3.3,1.9,5.7v23.3H386V46c0-2.4,0.7-4.3,2-5.7
			c1.4-1.4,3.2-2.1,5.4-2.1c2.2,0,4,0.7,5.2,2.1c1.2,1.4,1.9,3.3,1.9,5.7v23.3h12.7V45.1c0-5.3-1.6-9.6-4.7-12.8
			C405.4,29.1,401.3,27.5,396.3,27.5z"/>
		<path class="st5" d="M516.1,28.5H505l-10.3,27.1l-5.8-15.9c-1.4-4.2-3.1-7.3-5-9.2c-1.9-1.9-4.5-2.9-7.7-2.9c-2.4,0-4.4,0.5-6,1.5
			l-0.5,0.9l1.6,8.9l0.8,0.4c0.6-0.5,1.3-0.7,2.2-0.6c1.6,0,2.9,1.4,4,4.2l11.2,26.7h10.5l16.7-40.1L516.1,28.5z"/>
		<path class="st5" d="M559.5,62.9V62l-5.7-5.5h-0.9c-1.3,1.4-3,2.5-5,3.3c-2,0.8-4.1,1.2-6.4,1.2c-3,0-5.6-0.8-7.8-2.3
			c-2.1-1.5-3.4-3.8-3.7-6.7h31.1c0.2-1.1,0.2-2.2,0.2-3.4c0-6.2-2-11.3-6-15.2c-4-4-9.2-5.9-15.7-5.9c-6.5,0-11.8,2-15.9,6
			c-4.1,4-6.1,9.2-6.1,15.5c0,3.4,0.6,6.4,1.9,9.2c1.3,2.8,3,5,5.1,6.7c2.2,1.7,4.6,3.1,7.4,4c2.8,0.9,5.7,1.4,8.8,1.4
			c3.5,0,7-0.6,10.3-1.8C554.6,67.3,557.4,65.4,559.5,62.9z M532.9,38.8c1.8-1.6,4-2.4,6.7-2.4s4.9,0.8,6.7,2.4
			c1.7,1.6,2.7,3.8,3,6.7h-19.4C530.1,42.7,531.1,40.5,532.9,38.8z"/>
		<path class="st1" d="M514.1,91.6c-1,0-1.8,0.4-2.5,1.1c-0.7,0.7-1,1.6-1,2.6c0,1,0.4,1.8,1.1,2.5c0.7,0.7,1.5,1.1,2.5,1.1
			c1,0,1.8-0.4,2.6-1.1c0.7-0.7,1.1-1.5,1.1-2.5c0-1-0.4-1.9-1.1-2.6C515.9,92,515.1,91.6,514.1,91.6z"/>
		<path class="st1" d="M539.8,93.6c-0.2,0.1-0.3,0.2-0.6,0.2c-0.6,0-0.9-0.5-0.9-1.4v-5.9c0-1-0.2-2-0.5-2.8s-0.8-1.5-1.4-2.1
			c-0.6-0.6-1.3-1-2.1-1.4c-0.8-0.4-1.6-0.6-2.5-0.8c-0.8-0.2-1.7-0.2-2.6-0.2c-3.2,0-6,1-8.1,3.1v0.4l2.6,2.5h0.4
			c1.2-1.2,2.7-1.8,4.5-1.8c1.2,0,2.2,0.3,2.9,0.9s1.2,1.4,1.2,2.4v0.8c-1.3-0.5-2.7-0.7-4.2-0.7c-1.6,0-3,0.2-4.3,0.6
			c-1.2,0.4-2.3,1.1-3,2c-0.8,0.9-1.2,2-1.2,3.4c0,1.3,0.4,2.4,1.1,3.3c0.7,1,1.6,1.7,2.8,2.1c1.1,0.5,2.4,0.7,3.8,0.7
			c2.4,0,4.5-0.7,6.2-2.1c0.8,1.4,2.1,2.1,3.9,2.1c1.1,0,2.1-0.3,2.9-0.8l0.2-0.4l-0.7-3.9L539.8,93.6z M532.7,92
			c0,0.9-0.4,1.6-1.1,2.3c-0.7,0.6-1.6,0.9-2.7,0.9c-0.9,0-1.6-0.2-2.3-0.7c-0.6-0.5-0.9-1.1-0.9-1.8c0-0.8,0.3-1.4,1-1.9
			c0.6-0.5,1.5-0.7,2.7-0.7c1,0,2.2,0.2,3.3,0.6V92z"/>
		<path class="st1" d="M562.6,88.9c0-2.9-0.9-5.2-2.8-7c-1.8-1.8-4.2-2.7-7.2-2.7c-3,0-5.5,0.9-7.3,2.8c-1.9,1.9-2.8,4.2-2.8,7.1
			c0,1.6,0.3,3,0.9,4.2c0.6,1.3,1.4,2.3,2.4,3.1c1,0.8,2.1,1.4,3.4,1.8c1.3,0.4,2.6,0.6,4.1,0.6c1.6,0,3.2-0.3,4.8-0.8
			c1.5-0.6,2.8-1.4,3.8-2.6V95l-2.6-2.5h-0.4c-0.6,0.7-1.4,1.2-2.3,1.5c-0.9,0.4-1.9,0.5-2.9,0.5c-1.4,0-2.6-0.4-3.6-1.1
			c-1-0.7-1.6-1.7-1.7-3.1h14.3C562.5,89.9,562.6,89.4,562.6,88.9z M548.1,87.4c0.1-1.3,0.5-2.3,1.4-3.1c0.8-0.7,1.9-1.1,3.1-1.1
			c1.2,0,2.3,0.4,3.1,1.1c0.8,0.7,1.3,1.8,1.4,3.1H548.1z"/>
	</g>
</g>
<g id="Layer_3">
</g>
</svg>
