<?xml version="1.0" encoding="utf-8"?>
<!-- Generator: Adobe Illustrator 25.2.0, SVG Export Plug-In . SVG Version: 6.00 Build 0)  -->
<svg version="1.1" xmlns="http://www.w3.org/2000/svg" xmlns:xlink="http://www.w3.org/1999/xlink" x="0px" y="0px"
	 viewBox="0 0 117.3 122.8" style="enable-background:new 0 0 117.3 122.8;" xml:space="preserve">
<style type="text/css">
	.st0{opacity:0.43;fill:url(#SVGID_1_);}
	.st1{fill:#54B9EA;}
	.st2{fill:#263C8A;}
	.st3{fill:none;stroke:#FFFFFF;stroke-width:2;stroke-miterlimit:10;}
</style>
<g id="BACKGROUND">
</g>
<g id="OBJECTS">
	
		<radialGradient id="SVGID_1_" cx="88.8336" cy="109.4972" r="21.7156" gradientTransform="matrix(1 0 0 0.3468 0 71.5189)" gradientUnits="userSpaceOnUse">
		<stop  offset="2.717173e-07" style="stop-color:#8A8A8A"/>
		<stop  offset="0.1546" style="stop-color:#8F8F8F;stop-opacity:0.8454"/>
		<stop  offset="0.3551" style="stop-color:#A0A0A0;stop-opacity:0.6449"/>
		<stop  offset="0.5809" style="stop-color:#BABABA;stop-opacity:0.4191"/>
		<stop  offset="0.8235" style="stop-color:#DFDFDF;stop-opacity:0.1765"/>
		<stop  offset="1" style="stop-color:#FFFFFF;stop-opacity:0"/>
	</radialGradient>
	<ellipse class="st0" cx="88.8" cy="109.5" rx="22" ry="7.7"/>
	<path class="st1" d="M95.2,58.9c-12.7-13-30.9-10.6-43.9,2C40,71.8,40.2,97.6,43.1,108.2c0.2,0.7,0.7,1.3,1.4,1.5
		c10.5,3.3,36.2,4,47.4-6.9C105,90.1,107.8,71.9,95.2,58.9z M83.1,89.1c-5.2,5.1-13.6,5-18.6-0.2c-5.1-5.2-5-13.6,0.2-18.6
		c5.2-5.1,13.6-5,18.6,0.2C88.4,75.6,88.3,84,83.1,89.1z"/>
	<path class="st2" d="M39.8,110.9H26.8c-5.5,0-10-4.5-10-10V15.2h12.9c5.5,0,10,4.5,10,10V110.9z"/>
	<line class="st3" x1="12.2" y1="32.6" x2="36.7" y2="8.1"/>
</g>
<g id="Layer_3">
</g>
</svg>
