<?xml version="1.0" encoding="utf-8"?>
<!-- Generator: Adobe Illustrator 25.2.0, SVG Export Plug-In . SVG Version: 6.00 Build 0)  -->
<svg version="1.1" id="Layer_1" xmlns="http://www.w3.org/2000/svg" xmlns:xlink="http://www.w3.org/1999/xlink" x="0px" y="0px"
	 viewBox="0 0 1046.7 465.3" style="enable-background:new 0 0 1046.7 465.3;" xml:space="preserve">
<style type="text/css">
	.st0{fill:#CF8E04;}
	.st1{fill:#FFED00;}
	.st2{opacity:0.3;}
	.st3{fill:none;stroke:#050525;stroke-width:4.0021;stroke-miterlimit:4.0021;}
	.st4{fill:none;stroke:#050525;stroke-width:6.0031;stroke-linecap:round;stroke-miterlimit:4.0021;}
	.st5{fill:none;stroke:#050525;stroke-width:4;}
	.st6{fill:none;stroke:#050525;stroke-width:6;stroke-linecap:round;}
	.st7{fill:none;stroke:#050525;stroke-width:4.001;stroke-miterlimit:4.001;}
	.st8{enable-background:new    ;}
	.st9{fill:#050525;}
	.st10{fill:#1999FE;}
	.st11{fill:#2376FE;}
	.st12{fill:#FE461C;}
	.st13{fill:#FD1C12;}
	.st14{fill:#2A2D33;}
	.st15{fill:#D5F8FC;}
	.st16{fill:#FEFEFE;}
	.st17{fill:#C70B50;}
	.st18{fill:#009FC7;}
	.st19{fill:#0A5078;}
	.st20{fill:#F9B300;}
	.st21{fill:#D2CED0;}
	.st22{fill:#DB9302;}
	.st23{fill:#0082A9;}
	.st24{fill:#FEC43D;}
	.st25{fill:#F13737;}
	.st26{fill:#3EEBFE;}
	.st27{fill:#04083F;}
	.st28{fill:#FE6A39;}
	.st29{fill:#F3B538;}
	.st30{fill:#FECCBE;}
	.st31{fill:#54A0FE;}
	.st32{fill:#FDC957;}
	.st33{fill:#FEBEAB;}
	.st34{fill:#338DEE;}
</style>
<path id="Path_98304" class="st0" d="M350.9,259.5c28.3-5.7,38.2,16.4,69.1,20.9c30.8,4.5,44.4-20.1,72.6-6s45.2,52.8,32.5,78.3
	c-12.8,25.5-56.8,11.2-95.8,22.3c-39,11.1-48.7,30.9-78.3,17.9c-29.6-13-40.2-34.9-40.2-70S322.5,265.2,350.9,259.5z"/>
<path id="Path_98425" class="st1" d="M356.5,256.6c27.7-5.5,37.4,16.1,67.6,20.5c30.2,4.4,43.4-19.7,71-5.9
	c27.6,13.8,44.3,51.7,31.8,76.6c-12.5,25-55.5,11-93.7,21.8c-38.2,10.8-47.7,30.3-76.7,17.5c-29-12.8-39.3-34.2-39.3-68.6
	S328.7,262.2,356.5,256.6z"/>
<g id="Group_61977" transform="matrix(0.914, -0.407, 0.407, 0.914, 218.568, 72.118)" class="st2">
	<path id="Path_98307" class="st3" d="M-6.7,17.3c0,0,69.7-13.5,89.8,27.2s-9.3,135.5-9.3,135.5"/>
	<path id="Path_98315" class="st4" d="M85.3,174.9L73,188.3l-7.9-16.5"/>
</g>
<g id="Group_61976" transform="translate(469.068 276.791) rotate(-81)" class="st2">
	<path id="Path_98311" class="st5" d="M192.8,69.7c0,0-40.2-77.8-78.5-65.8S70.3,117.6,39.5,117.6s-55.8-47.2-55.8-47.2"/>
	<path id="Path_98316" class="st6" d="M180.6,65.5l16.1,8.3l1.8-18.2"/>
</g>
<g id="Group_61975" transform="translate(807.311 32.756)" class="st2">
	<path id="Path_98313" class="st7" d="M21.8,40.8c0,0,41.9-22.5,90.1-8.4c22.5,6.6,39.6,31.1,39.6,70.2s-25.8,84.3-25.8,84.3"/>
	<path id="Path_98317" class="st6" d="M139.8,181.4l-16.2,8.1l-1.4-18.3"/>
</g>
<g class="st8">
	<path class="st9" d="M397,414.8v-15.4h5.6c1.7,0,3,0.3,4,0.9s1.4,1.5,1.4,2.7c0,0.8-0.3,1.6-0.8,2.2c-0.6,0.6-1.3,1.1-2.2,1.3v0
		c1.1,0.1,2,0.5,2.6,1.2s1,1.5,1,2.5c0,1.4-0.5,2.5-1.5,3.4c-1,0.8-2.4,1.2-4.1,1.2H397z M400.4,402v3.7h1.5c0.7,0,1.3-0.2,1.7-0.5
		c0.4-0.3,0.6-0.8,0.6-1.4c0-1.1-0.8-1.7-2.5-1.7H400.4z M400.4,408.2v4.1h1.9c0.8,0,1.4-0.2,1.9-0.6c0.5-0.4,0.7-0.9,0.7-1.5
		c0-0.6-0.2-1.1-0.7-1.5c-0.4-0.4-1.1-0.5-1.9-0.5H400.4z"/>
	<path class="st9" d="M416,415.1c-1.8,0-3.3-0.5-4.3-1.5c-1-1-1.6-2.4-1.6-4.2c0-1.8,0.5-3.2,1.6-4.3c1.1-1,2.6-1.5,4.4-1.5
		c1.8,0,3.3,0.5,4.3,1.5c1,1,1.6,2.4,1.6,4.1c0,1.8-0.5,3.3-1.6,4.3C419.3,414.5,417.8,415.1,416,415.1z M416.1,406.1
		c-0.8,0-1.4,0.3-1.9,0.8s-0.7,1.3-0.7,2.3c0,2.1,0.9,3.2,2.6,3.2c1.6,0,2.4-1.1,2.4-3.3C418.5,407.2,417.7,406.1,416.1,406.1z"/>
	<path class="st9" d="M429.4,415.1c-1.8,0-3.3-0.5-4.3-1.5c-1-1-1.6-2.4-1.6-4.2c0-1.8,0.5-3.2,1.6-4.3c1.1-1,2.6-1.5,4.4-1.5
		c1.8,0,3.3,0.5,4.3,1.5c1,1,1.6,2.4,1.6,4.1c0,1.8-0.5,3.3-1.6,4.3C432.7,414.5,431.3,415.1,429.4,415.1z M429.5,406.1
		c-0.8,0-1.4,0.3-1.9,0.8s-0.7,1.3-0.7,2.3c0,2.1,0.9,3.2,2.6,3.2c1.6,0,2.4-1.1,2.4-3.3C432,407.2,431.1,406.1,429.5,406.1z"/>
	<path class="st9" d="M448.6,414.8h-4.1l-3.5-5.5h0v5.5h-3.4v-16.3h3.4v10.4h0l3.3-5.1h4l-3.9,5.2L448.6,414.8z"/>
	<path class="st9" d="M466.5,403.8l-4.5,11.9c-1.1,2.9-2.7,4.3-4.9,4.3c-0.8,0-1.5-0.1-2-0.3V417c0.5,0.3,0.9,0.4,1.5,0.4
		c0.9,0,1.5-0.4,1.8-1.2l0.6-1.4l-4.5-11h3.8l2.1,6.7c0.1,0.4,0.2,0.9,0.3,1.5h0c0.1-0.4,0.2-0.9,0.4-1.5l2.1-6.7H466.5z"/>
	<path class="st9" d="M472.9,415.1c-1.8,0-3.3-0.5-4.3-1.5c-1-1-1.6-2.4-1.6-4.2c0-1.8,0.5-3.2,1.6-4.3c1.1-1,2.6-1.5,4.4-1.5
		c1.8,0,3.3,0.5,4.3,1.5c1,1,1.6,2.4,1.6,4.1c0,1.8-0.5,3.3-1.6,4.3C476.2,414.5,474.7,415.1,472.9,415.1z M472.9,406.1
		c-0.8,0-1.4,0.3-1.9,0.8s-0.7,1.3-0.7,2.3c0,2.1,0.9,3.2,2.6,3.2c1.6,0,2.4-1.1,2.4-3.3C475.4,407.2,474.6,406.1,472.9,406.1z"/>
	<path class="st9" d="M491.5,414.8h-3.4v-1.7h-0.1c-0.8,1.3-2,1.9-3.4,1.9c-2.5,0-3.8-1.5-3.8-4.6v-6.6h3.4v6.3
		c0,1.6,0.6,2.3,1.8,2.3c0.6,0,1.1-0.2,1.5-0.6c0.4-0.4,0.5-1,0.5-1.7v-6.3h3.4V414.8z"/>
	<path class="st9" d="M501.6,406.9c-0.4-0.2-0.9-0.3-1.4-0.3c-0.7,0-1.3,0.3-1.7,0.8c-0.4,0.5-0.6,1.3-0.6,2.2v5.3h-3.4v-11h3.4v2h0
		c0.5-1.5,1.5-2.2,2.9-2.2c0.4,0,0.6,0,0.8,0.1V406.9z"/>
	<path class="st9" d="M527.1,414.8h-3.4v-9.2c0-1,0-2.1,0.1-3.3h-0.1c-0.2,0.9-0.3,1.6-0.5,2l-3.6,10.5h-2.8l-3.7-10.4
		c-0.1-0.3-0.3-1-0.5-2.1h-0.1c0.1,1.5,0.1,2.9,0.1,4v8.5h-3.1v-15.4h5.1l3.1,9.1c0.3,0.7,0.4,1.5,0.5,2.2h0.1
		c0.2-0.9,0.4-1.6,0.6-2.2l3.1-9.1h5V414.8z"/>
	<path class="st9" d="M535.5,415.1c-1.8,0-3.3-0.5-4.3-1.5c-1-1-1.6-2.4-1.6-4.2c0-1.8,0.5-3.2,1.6-4.3c1.1-1,2.6-1.5,4.4-1.5
		c1.8,0,3.3,0.5,4.3,1.5c1,1,1.6,2.4,1.6,4.1c0,1.8-0.5,3.3-1.6,4.3C538.8,414.5,537.4,415.1,535.5,415.1z M535.6,406.1
		c-0.8,0-1.4,0.3-1.9,0.8s-0.7,1.3-0.7,2.3c0,2.1,0.9,3.2,2.6,3.2c1.6,0,2.4-1.1,2.4-3.3C538,407.2,537.2,406.1,535.6,406.1z"/>
	<path class="st9" d="M554.2,403.8l-4.1,11h-3.9l-3.9-11h3.6l1.9,6.8c0.2,0.8,0.3,1.4,0.4,2h0c0-0.5,0.2-1.1,0.4-1.9l2-6.8H554.2z"
		/>
	<path class="st9" d="M565.3,410.3h-7.2c0.1,1.6,1.1,2.4,3,2.4c1.2,0,2.3-0.3,3.2-0.9v2.4c-1,0.5-2.3,0.8-4,0.8
		c-1.8,0-3.2-0.5-4.1-1.5c-1-1-1.5-2.4-1.5-4.1c0-1.8,0.5-3.3,1.6-4.3s2.4-1.6,3.9-1.6c1.6,0,2.8,0.5,3.7,1.4c0.9,1,1.3,2.2,1.3,3.9
		V410.3z M562.1,408.2c0-1.6-0.6-2.4-1.9-2.4c-0.5,0-1,0.2-1.4,0.7s-0.6,1-0.7,1.7H562.1z"/>
</g>
<g class="st8">
	<path class="st9" d="M802.2,424.1h-4l-2.4-4c-0.2-0.3-0.4-0.6-0.5-0.8s-0.3-0.4-0.5-0.6c-0.2-0.2-0.3-0.3-0.5-0.4
		c-0.2-0.1-0.4-0.1-0.6-0.1h-0.9v5.9h-3.5v-15.4h5.5c3.7,0,5.6,1.4,5.6,4.2c0,0.5-0.1,1-0.2,1.5c-0.2,0.5-0.4,0.9-0.7,1.2
		s-0.7,0.7-1.1,0.9c-0.4,0.3-0.9,0.5-1.4,0.6v0c0.2,0.1,0.5,0.2,0.7,0.3c0.2,0.2,0.4,0.3,0.6,0.6s0.4,0.4,0.6,0.7
		c0.2,0.2,0.3,0.5,0.5,0.7L802.2,424.1z M792.8,411.3v4.3h1.5c0.7,0,1.3-0.2,1.8-0.6c0.5-0.4,0.7-1,0.7-1.6c0-1.3-0.8-2-2.4-2H792.8
		z"/>
	<path class="st9" d="M812.7,419.5h-7.2c0.1,1.6,1.1,2.4,3,2.4c1.2,0,2.3-0.3,3.2-0.9v2.4c-1,0.5-2.3,0.8-4,0.8
		c-1.8,0-3.2-0.5-4.1-1.5c-1-1-1.5-2.4-1.5-4.1c0-1.8,0.5-3.3,1.6-4.3s2.4-1.6,3.9-1.6c1.6,0,2.8,0.5,3.7,1.4c0.9,1,1.3,2.2,1.3,3.9
		V419.5z M809.5,417.4c0-1.6-0.6-2.4-1.9-2.4c-0.5,0-1,0.2-1.4,0.7s-0.6,1-0.7,1.7H809.5z"/>
	<path class="st9" d="M823,423.7c-0.8,0.4-1.9,0.7-3.3,0.7c-1.7,0-3.1-0.5-4.1-1.5s-1.6-2.3-1.6-4c0-1.9,0.6-3.3,1.7-4.4
		c1.1-1.1,2.6-1.6,4.5-1.6c1.3,0,2.2,0.2,2.8,0.5v2.9c-0.7-0.5-1.5-0.8-2.4-0.8c-1,0-1.7,0.3-2.3,0.9c-0.6,0.6-0.9,1.4-0.9,2.4
		c0,1,0.3,1.7,0.8,2.3c0.5,0.6,1.3,0.8,2.2,0.8c0.8,0,1.7-0.3,2.5-0.8V423.7z"/>
	<path class="st9" d="M835.1,419.5h-7.2c0.1,1.6,1.1,2.4,3,2.4c1.2,0,2.3-0.3,3.2-0.9v2.4c-1,0.5-2.3,0.8-4,0.8
		c-1.8,0-3.2-0.5-4.1-1.5c-1-1-1.5-2.4-1.5-4.1c0-1.8,0.5-3.3,1.6-4.3s2.4-1.6,3.9-1.6c1.6,0,2.8,0.5,3.7,1.4c0.9,1,1.3,2.2,1.3,3.9
		V419.5z M832,417.4c0-1.6-0.6-2.4-1.9-2.4c-0.5,0-1,0.2-1.4,0.7s-0.6,1-0.7,1.7H832z"/>
	<path class="st9" d="M838.9,411.3c-0.6,0-1-0.2-1.4-0.5c-0.4-0.3-0.5-0.8-0.5-1.3c0-0.5,0.2-0.9,0.5-1.2s0.8-0.5,1.4-0.5
		c0.6,0,1.1,0.2,1.4,0.5c0.4,0.3,0.5,0.7,0.5,1.2c0,0.5-0.2,0.9-0.5,1.3C839.9,411.2,839.4,411.3,838.9,411.3z M840.5,424.1h-3.4
		v-11h3.4V424.1z"/>
	<path class="st9" d="M853.9,413.1l-4.1,11h-3.9l-3.9-11h3.6l1.9,6.8c0.2,0.8,0.3,1.4,0.4,2h0c0-0.5,0.2-1.1,0.4-1.9l2-6.8H853.9z"
		/>
	<path class="st9" d="M865,419.5h-7.2c0.1,1.6,1.1,2.4,3,2.4c1.2,0,2.3-0.3,3.2-0.9v2.4c-1,0.5-2.3,0.8-4,0.8
		c-1.8,0-3.2-0.5-4.1-1.5c-1-1-1.5-2.4-1.5-4.1c0-1.8,0.5-3.3,1.6-4.3s2.4-1.6,3.9-1.6c1.6,0,2.8,0.5,3.7,1.4c0.9,1,1.3,2.2,1.3,3.9
		V419.5z M861.8,417.4c0-1.6-0.6-2.4-1.9-2.4c-0.5,0-1,0.2-1.4,0.7s-0.6,1-0.7,1.7H861.8z"/>
	<path class="st9" d="M883.5,413.1l-4.5,11.9c-1.1,2.9-2.7,4.3-4.9,4.3c-0.8,0-1.5-0.1-2-0.3v-2.7c0.5,0.3,0.9,0.4,1.5,0.4
		c0.9,0,1.5-0.4,1.8-1.2l0.6-1.4l-4.5-11h3.8l2.1,6.7c0.1,0.4,0.2,0.9,0.3,1.5h0c0.1-0.4,0.2-0.9,0.4-1.5l2.1-6.7H883.5z"/>
	<path class="st9" d="M889.9,424.3c-1.8,0-3.3-0.5-4.3-1.5c-1-1-1.6-2.4-1.6-4.2c0-1.8,0.5-3.2,1.6-4.3c1.1-1,2.6-1.5,4.4-1.5
		c1.8,0,3.3,0.5,4.3,1.5c1,1,1.6,2.4,1.6,4.1c0,1.8-0.5,3.3-1.6,4.3C893.3,423.8,891.8,424.3,889.9,424.3z M890,415.4
		c-0.8,0-1.4,0.3-1.9,0.8s-0.7,1.3-0.7,2.3c0,2.1,0.9,3.2,2.6,3.2c1.6,0,2.4-1.1,2.4-3.3C892.5,416.4,891.7,415.4,890,415.4z"/>
	<path class="st9" d="M908.6,424.1h-3.4v-1.7h-0.1c-0.8,1.3-2,1.9-3.4,1.9c-2.5,0-3.8-1.5-3.8-4.6v-6.6h3.4v6.3
		c0,1.6,0.6,2.3,1.8,2.3c0.6,0,1.1-0.2,1.5-0.6c0.4-0.4,0.5-1,0.5-1.7v-6.3h3.4V424.1z"/>
	<path class="st9" d="M918.6,416.1c-0.4-0.2-0.9-0.3-1.4-0.3c-0.7,0-1.3,0.3-1.7,0.8c-0.4,0.5-0.6,1.3-0.6,2.2v5.3h-3.4v-11h3.4v2h0
		c0.5-1.5,1.5-2.2,2.9-2.2c0.4,0,0.6,0,0.8,0.1V416.1z"/>
	<path class="st9" d="M925.6,423.8V421c0.6,0.3,1.1,0.6,1.7,0.8c0.6,0.2,1.1,0.2,1.6,0.2c0.6,0,1.1-0.1,1.4-0.2
		c0.3-0.2,0.5-0.4,0.5-0.8c0-0.2-0.1-0.4-0.2-0.5s-0.4-0.3-0.6-0.4s-0.5-0.2-0.8-0.3s-0.6-0.2-0.8-0.3c-0.4-0.2-0.8-0.3-1.2-0.5
		c-0.3-0.2-0.6-0.4-0.8-0.7s-0.4-0.5-0.5-0.9s-0.2-0.7-0.2-1.2c0-0.6,0.1-1.1,0.4-1.6s0.6-0.8,1.1-1.1c0.4-0.3,1-0.5,1.5-0.6
		c0.6-0.1,1.2-0.2,1.8-0.2c0.5,0,1,0,1.5,0.1c0.5,0.1,1,0.2,1.5,0.3v2.6c-0.4-0.3-0.9-0.4-1.4-0.6c-0.5-0.1-1-0.2-1.4-0.2
		c-0.2,0-0.4,0-0.6,0.1c-0.2,0-0.4,0.1-0.5,0.2c-0.2,0.1-0.3,0.2-0.4,0.3c-0.1,0.1-0.1,0.3-0.1,0.4c0,0.2,0.1,0.4,0.2,0.5
		s0.3,0.3,0.5,0.4c0.2,0.1,0.4,0.2,0.7,0.3c0.3,0.1,0.5,0.2,0.8,0.3c0.5,0.2,0.9,0.3,1.2,0.5s0.7,0.4,0.9,0.7
		c0.3,0.3,0.5,0.5,0.6,0.9s0.2,0.7,0.2,1.2c0,0.7-0.1,1.2-0.4,1.7c-0.3,0.5-0.7,0.8-1.1,1.1c-0.5,0.3-1,0.5-1.6,0.6
		c-0.6,0.1-1.2,0.2-1.9,0.2C927.7,424.3,926.6,424.1,925.6,423.8z"/>
	<path class="st9" d="M946.5,424.1h-3.4v-6.3c0-1.6-0.6-2.4-1.8-2.4c-0.6,0-1.1,0.2-1.5,0.7s-0.6,1-0.6,1.7v6.3H936v-16.3h3.4v6.9h0
		c0.8-1.3,2-1.9,3.4-1.9c2.5,0,3.7,1.5,3.7,4.5V424.1z"/>
	<path class="st9" d="M950.9,411.3c-0.6,0-1-0.2-1.4-0.5c-0.4-0.3-0.5-0.8-0.5-1.3c0-0.5,0.2-0.9,0.5-1.2s0.8-0.5,1.4-0.5
		c0.6,0,1.1,0.2,1.4,0.5c0.4,0.3,0.5,0.7,0.5,1.2c0,0.5-0.2,0.9-0.5,1.3C952,411.2,951.5,411.3,950.9,411.3z M952.6,424.1h-3.4v-11
		h3.4V424.1z"/>
	<path class="st9" d="M958.9,422.8L958.9,422.8l0,6.3h-3.4v-16.1h3.4v1.7h0c0.8-1.3,2-1.9,3.5-1.9c1.4,0,2.5,0.5,3.3,1.5
		c0.8,1,1.2,2.3,1.2,4c0,1.8-0.5,3.3-1.4,4.4c-0.9,1.1-2.1,1.7-3.6,1.7C960.6,424.3,959.6,423.8,958.9,422.8z M958.8,418.3v0.9
		c0,0.8,0.2,1.4,0.6,1.9s0.9,0.7,1.6,0.7c0.8,0,1.4-0.3,1.8-0.9c0.4-0.6,0.6-1.4,0.6-2.5c0-1.9-0.8-2.9-2.3-2.9
		c-0.7,0-1.3,0.3-1.7,0.8C959,416.7,958.8,417.4,958.8,418.3z"/>
	<path class="st9" d="M986.6,424.1h-3.4v-6.3c0-1.6-0.6-2.4-1.8-2.4c-0.6,0-1,0.2-1.4,0.7s-0.5,1.1-0.5,1.8v6.2h-3.4v-6.3
		c0-1.6-0.6-2.3-1.7-2.3c-0.6,0-1,0.2-1.4,0.7c-0.3,0.5-0.5,1.1-0.5,1.9v6.1h-3.4v-11h3.4v1.7h0c0.4-0.6,0.8-1.1,1.5-1.4
		c0.6-0.4,1.3-0.6,2.1-0.6c1.6,0,2.6,0.7,3.2,2.1c0.8-1.4,2.1-2.1,3.7-2.1c2.4,0,3.6,1.5,3.6,4.4V424.1z"/>
	<path class="st9" d="M999.1,419.5H992c0.1,1.6,1.1,2.4,3,2.4c1.2,0,2.3-0.3,3.2-0.9v2.4c-1,0.5-2.3,0.8-4,0.8
		c-1.8,0-3.2-0.5-4.1-1.5c-1-1-1.5-2.4-1.5-4.1c0-1.8,0.5-3.3,1.6-4.3s2.4-1.6,3.9-1.6c1.6,0,2.8,0.5,3.7,1.4c0.9,1,1.3,2.2,1.3,3.9
		V419.5z M996,417.4c0-1.6-0.6-2.4-1.9-2.4c-0.5,0-1,0.2-1.4,0.7s-0.6,1-0.7,1.7H996z"/>
	<path class="st9" d="M1011.8,424.1h-3.4v-6.1c0-1.7-0.6-2.6-1.8-2.6c-0.6,0-1.1,0.2-1.5,0.7s-0.6,1-0.6,1.7v6.3h-3.4v-11h3.4v1.7h0
		c0.8-1.3,2-2,3.5-2c2.4,0,3.7,1.5,3.7,4.5V424.1z"/>
	<path class="st9" d="M1021.1,423.9c-0.5,0.3-1.3,0.4-2.3,0.4c-2.4,0-3.6-1.2-3.6-3.7v-5h-1.8v-2.5h1.8v-2.4l3.4-1v3.3h2.5v2.5h-2.5
		v4.4c0,1.1,0.5,1.7,1.4,1.7c0.4,0,0.7-0.1,1.1-0.3V423.9z"/>
</g>
<g class="st8">
	<path class="st9" d="M825,450.3c-0.4,0-0.7,0-1.1-0.2s-0.7-0.2-1-0.4s-0.6-0.4-0.9-0.6c-0.3-0.2-0.5-0.5-0.8-0.7
		c-0.3,0.2-0.6,0.4-1,0.7c-0.4,0.2-0.8,0.4-1.3,0.6c-0.5,0.2-1,0.3-1.6,0.5c-0.6,0.1-1.2,0.2-1.8,0.2c-0.8,0-1.6-0.1-2.3-0.3
		s-1.3-0.5-1.8-0.9c-0.5-0.4-0.9-0.9-1.2-1.5s-0.4-1.3-0.4-2c0-0.6,0.1-1.2,0.3-1.6c0.2-0.5,0.5-0.9,0.9-1.3
		c0.4-0.4,0.7-0.7,1.2-0.9c0.4-0.3,0.9-0.5,1.4-0.6c-0.2-0.2-0.4-0.4-0.7-0.6c-0.2-0.2-0.4-0.5-0.6-0.7c-0.2-0.3-0.3-0.6-0.4-0.9
		s-0.2-0.6-0.2-1c0-0.6,0.1-1.1,0.3-1.5c0.2-0.4,0.5-0.8,1-1.1s0.9-0.5,1.5-0.7c0.6-0.2,1.2-0.2,1.9-0.2c0.7,0,1.3,0.1,1.8,0.2
		s1,0.4,1.4,0.7c0.4,0.3,0.7,0.6,0.9,1.1c0.2,0.4,0.3,0.9,0.3,1.4c0,0.8-0.2,1.5-0.7,2.1c-0.5,0.6-1.1,1.1-2,1.4
		c0.3,0.2,0.7,0.3,1,0.5c0.3,0.2,0.6,0.4,0.9,0.7s0.6,0.5,0.9,0.9c0.3,0.3,0.6,0.7,0.8,1.1c0.6-0.7,1-1.5,1.3-2.4
		c0.3-0.8,0.4-1.7,0.4-2.6c0-0.3,0-0.5,0-0.8s-0.1-0.5-0.2-0.7h2.9c0.1,0.2,0.1,0.5,0.2,0.7c0,0.2,0.1,0.5,0.1,0.8
		c0,0.7-0.1,1.4-0.2,2s-0.4,1.3-0.6,1.9c-0.3,0.6-0.6,1.2-1,1.7s-0.8,1-1.2,1.5c0.4,0.4,0.7,0.6,1.1,0.8c0.4,0.2,0.7,0.3,1.1,0.3
		c0.3,0,0.7,0,1.1-0.1c0.4-0.1,0.7-0.2,0.9-0.3v2.6c-0.4,0.2-0.8,0.3-1.2,0.3C825.9,450.3,825.5,450.3,825,450.3z M815.9,447.7
		c0.4,0,0.8,0,1.2-0.1c0.4-0.1,0.7-0.2,1.1-0.3c0.3-0.1,0.6-0.3,0.9-0.5s0.5-0.4,0.8-0.6c-0.4-0.6-0.7-1.1-1.1-1.5
		c-0.4-0.4-0.7-0.7-1.1-1c-0.4-0.3-0.7-0.5-1-0.7s-0.7-0.4-1-0.5c-0.3,0.1-0.6,0.3-0.8,0.5c-0.3,0.2-0.5,0.4-0.7,0.6
		c-0.2,0.2-0.4,0.5-0.5,0.8c-0.1,0.3-0.2,0.6-0.2,1c0,0.3,0.1,0.7,0.2,0.9c0.1,0.3,0.3,0.5,0.5,0.7s0.5,0.4,0.8,0.5
		C815.2,447.7,815.6,447.7,815.9,447.7z M817.9,438c0-0.2,0-0.4-0.1-0.6c-0.1-0.2-0.2-0.3-0.3-0.4c-0.1-0.1-0.3-0.2-0.5-0.3
		c-0.2-0.1-0.4-0.1-0.5-0.1c-0.2,0-0.5,0-0.7,0.1s-0.4,0.2-0.5,0.3s-0.3,0.3-0.3,0.4c-0.1,0.2-0.1,0.3-0.1,0.5
		c0,0.4,0.1,0.8,0.4,1.1c0.2,0.3,0.6,0.6,0.9,0.8c0.2-0.1,0.5-0.2,0.7-0.3s0.4-0.3,0.6-0.4s0.3-0.3,0.4-0.5S817.9,438.3,817.9,438z"
		/>
	<path class="st9" d="M848.6,450.1h-4l-2.4-4c-0.2-0.3-0.4-0.6-0.5-0.8c-0.2-0.2-0.3-0.4-0.5-0.6c-0.2-0.2-0.3-0.3-0.5-0.4
		c-0.2-0.1-0.4-0.1-0.6-0.1h-0.9v5.9h-3.5v-15.4h5.5c3.7,0,5.6,1.4,5.6,4.2c0,0.5-0.1,1-0.2,1.5c-0.2,0.5-0.4,0.9-0.7,1.2
		s-0.7,0.7-1.1,0.9s-0.9,0.5-1.4,0.6v0c0.2,0.1,0.5,0.2,0.7,0.3c0.2,0.2,0.4,0.3,0.6,0.6c0.2,0.2,0.4,0.4,0.6,0.7
		c0.2,0.2,0.3,0.5,0.5,0.7L848.6,450.1z M839.1,437.3v4.3h1.5c0.7,0,1.3-0.2,1.8-0.6c0.5-0.4,0.7-1,0.7-1.6c0-1.3-0.8-2-2.4-2H839.1
		z"/>
	<path class="st9" d="M858.8,450.1h-3.2v-1.6h0c-0.7,1.2-1.8,1.8-3.3,1.8c-1.1,0-1.9-0.3-2.5-0.9c-0.6-0.6-0.9-1.4-0.9-2.4
		c0-2.1,1.3-3.4,3.8-3.7l3-0.4c0-1.2-0.7-1.8-2-1.8c-1.3,0-2.6,0.4-3.7,1.2v-2.6c0.5-0.2,1.1-0.5,1.9-0.6s1.6-0.3,2.2-0.3
		c3.1,0,4.7,1.6,4.7,4.7V450.1z M855.7,445.6v-0.7l-2,0.3c-1.1,0.1-1.7,0.6-1.7,1.5c0,0.4,0.1,0.7,0.4,1c0.3,0.2,0.6,0.4,1.1,0.4
		c0.6,0,1.2-0.2,1.6-0.7C855.5,446.8,855.7,446.3,855.7,445.6z"/>
	<path class="st9" d="M868.2,449.9c-0.5,0.3-1.3,0.4-2.3,0.4c-2.4,0-3.6-1.2-3.6-3.7v-5h-1.8v-2.5h1.8v-2.4l3.4-1v3.3h2.5v2.5h-2.5
		v4.4c0,1.1,0.5,1.7,1.4,1.7c0.4,0,0.7-0.1,1.1-0.3V449.9z"/>
	<path class="st9" d="M879.9,445.5h-7.2c0.1,1.6,1.1,2.4,3,2.4c1.2,0,2.3-0.3,3.2-0.9v2.4c-1,0.5-2.3,0.8-4,0.8
		c-1.8,0-3.2-0.5-4.1-1.5c-1-1-1.5-2.4-1.5-4.1c0-1.8,0.5-3.3,1.6-4.3c1.1-1.1,2.4-1.6,3.9-1.6c1.6,0,2.8,0.5,3.7,1.4
		s1.3,2.2,1.3,3.9V445.5z M876.7,443.4c0-1.6-0.6-2.4-1.9-2.4c-0.5,0-1,0.2-1.4,0.7s-0.6,1-0.7,1.7H876.7z"/>
	<path class="st9" d="M893.2,450.3c-1.8,0-3.3-0.5-4.3-1.5c-1-1-1.6-2.4-1.6-4.2c0-1.8,0.5-3.2,1.6-4.3c1.1-1,2.6-1.5,4.4-1.5
		c1.8,0,3.3,0.5,4.3,1.5c1,1,1.6,2.4,1.6,4.1c0,1.8-0.5,3.3-1.6,4.3S895.1,450.3,893.2,450.3z M893.3,441.4c-0.8,0-1.4,0.3-1.9,0.8
		c-0.4,0.6-0.7,1.3-0.7,2.3c0,2.1,0.9,3.2,2.6,3.2c1.6,0,2.4-1.1,2.4-3.3C895.8,442.4,894.9,441.4,893.3,441.4z"/>
	<path class="st9" d="M911.9,450.1h-3.4v-1.7h-0.1c-0.8,1.3-2,1.9-3.4,1.9c-2.5,0-3.8-1.5-3.8-4.6v-6.6h3.4v6.3
		c0,1.6,0.6,2.3,1.8,2.3c0.6,0,1.1-0.2,1.5-0.6c0.4-0.4,0.5-1,0.5-1.7v-6.3h3.4V450.1z"/>
	<path class="st9" d="M921.9,442.1c-0.4-0.2-0.9-0.3-1.4-0.3c-0.7,0-1.3,0.3-1.7,0.8c-0.4,0.5-0.6,1.3-0.6,2.2v5.3h-3.4v-11h3.4v2h0
		c0.5-1.5,1.5-2.2,2.9-2.2c0.4,0,0.6,0,0.8,0.1V442.1z"/>
	<path class="st9" d="M928.8,449.8V447c0.6,0.3,1.1,0.6,1.7,0.8s1.1,0.2,1.6,0.2c0.6,0,1.1-0.1,1.4-0.2s0.5-0.4,0.5-0.8
		c0-0.2-0.1-0.4-0.2-0.5c-0.2-0.1-0.4-0.3-0.6-0.4s-0.5-0.2-0.8-0.3c-0.3-0.1-0.6-0.2-0.8-0.3c-0.4-0.2-0.8-0.3-1.2-0.5
		c-0.3-0.2-0.6-0.4-0.8-0.7s-0.4-0.5-0.5-0.9s-0.2-0.7-0.2-1.2c0-0.6,0.1-1.1,0.4-1.6s0.6-0.8,1.1-1.1c0.4-0.3,1-0.5,1.5-0.6
		c0.6-0.1,1.2-0.2,1.8-0.2c0.5,0,1,0,1.5,0.1c0.5,0.1,1,0.2,1.5,0.3v2.6c-0.4-0.3-0.9-0.4-1.4-0.6c-0.5-0.1-1-0.2-1.4-0.2
		c-0.2,0-0.4,0-0.6,0.1c-0.2,0-0.4,0.1-0.5,0.2c-0.2,0.1-0.3,0.2-0.4,0.3c-0.1,0.1-0.1,0.3-0.1,0.4c0,0.2,0.1,0.4,0.2,0.5
		s0.3,0.3,0.5,0.4c0.2,0.1,0.4,0.2,0.7,0.3c0.3,0.1,0.5,0.2,0.8,0.3c0.5,0.2,0.9,0.3,1.2,0.5s0.7,0.4,0.9,0.7s0.5,0.5,0.6,0.9
		s0.2,0.7,0.2,1.2c0,0.7-0.1,1.2-0.4,1.7c-0.3,0.5-0.7,0.8-1.1,1.1c-0.5,0.3-1,0.5-1.6,0.6c-0.6,0.1-1.2,0.2-1.9,0.2
		C931,450.3,929.9,450.1,928.8,449.8z"/>
	<path class="st9" d="M949.1,445.5h-7.2c0.1,1.6,1.1,2.4,3,2.4c1.2,0,2.3-0.3,3.2-0.9v2.4c-1,0.5-2.3,0.8-4,0.8
		c-1.8,0-3.2-0.5-4.1-1.5c-1-1-1.5-2.4-1.5-4.1c0-1.8,0.5-3.3,1.6-4.3c1.1-1.1,2.4-1.6,3.9-1.6c1.6,0,2.8,0.5,3.7,1.4
		s1.3,2.2,1.3,3.9V445.5z M946,443.4c0-1.6-0.6-2.4-1.9-2.4c-0.5,0-1,0.2-1.4,0.7s-0.6,1-0.7,1.7H946z"/>
	<path class="st9" d="M958.3,442.1c-0.4-0.2-0.9-0.3-1.4-0.3c-0.7,0-1.3,0.3-1.7,0.8c-0.4,0.5-0.6,1.3-0.6,2.2v5.3h-3.4v-11h3.4v2h0
		c0.5-1.5,1.5-2.2,2.9-2.2c0.4,0,0.6,0,0.8,0.1V442.1z"/>
	<path class="st9" d="M971.3,439.1l-4.1,11h-3.9l-3.9-11h3.6l1.9,6.8c0.2,0.8,0.3,1.4,0.4,2h0c0-0.5,0.2-1.1,0.4-1.9l2-6.8H971.3z"
		/>
	<path class="st9" d="M974.4,437.3c-0.6,0-1-0.2-1.4-0.5c-0.4-0.3-0.5-0.8-0.5-1.3c0-0.5,0.2-0.9,0.5-1.2s0.8-0.5,1.4-0.5
		c0.6,0,1.1,0.2,1.4,0.5s0.5,0.7,0.5,1.2c0,0.5-0.2,0.9-0.5,1.3S975,437.3,974.4,437.3z M976.1,450.1h-3.4v-11h3.4V450.1z"/>
	<path class="st9" d="M987.3,449.7c-0.8,0.4-1.9,0.7-3.3,0.7c-1.7,0-3.1-0.5-4.1-1.5c-1-1-1.6-2.3-1.6-4c0-1.9,0.6-3.3,1.7-4.4
		c1.1-1.1,2.6-1.6,4.5-1.6c1.3,0,2.2,0.2,2.8,0.5v2.9c-0.7-0.5-1.5-0.8-2.4-0.8c-1,0-1.7,0.3-2.3,0.9c-0.6,0.6-0.9,1.4-0.9,2.4
		c0,1,0.3,1.7,0.8,2.3c0.5,0.6,1.3,0.8,2.2,0.8c0.8,0,1.7-0.3,2.5-0.8V449.7z"/>
	<path class="st9" d="M999.4,445.5h-7.2c0.1,1.6,1.1,2.4,3,2.4c1.2,0,2.3-0.3,3.2-0.9v2.4c-1,0.5-2.3,0.8-4,0.8
		c-1.8,0-3.2-0.5-4.1-1.5c-1-1-1.5-2.4-1.5-4.1c0-1.8,0.5-3.3,1.6-4.3c1.1-1.1,2.4-1.6,3.9-1.6c1.6,0,2.8,0.5,3.7,1.4
		s1.3,2.2,1.3,3.9V445.5z M996.3,443.4c0-1.6-0.6-2.4-1.9-2.4c-0.5,0-1,0.2-1.4,0.7s-0.6,1-0.7,1.7H996.3z"/>
</g>
<path id="Path_98303" class="st0" d="M57,84.9c28.3-5.7,38.2,16.4,69.1,20.9s44.4-20.1,72.6-6s45.2,52.8,32.5,78.3
	s-56.8,11.2-95.8,22.3S86.7,231.3,57,218.2s-40.2-34.9-40.2-70S28.7,90.5,57,84.9z"/>
<path id="Path_98424" class="st1" d="M61.1,84.8c27.5-5.5,37.2,16,67.1,20.3s43.1-19.5,70.5-5.8s43.9,51.3,31.6,76.1
	s-55.2,10.9-93.1,21.6c-37.9,10.7-47.3,30.1-76.1,17.4s-39-34-39-68.1S33.5,90.3,61.1,84.8z"/>
<g class="st8">
	<path class="st9" d="M139.8,225.6h-9.2v-15.4h8.9v2.8H134v3.4h5v2.8h-5v3.5h5.8V225.6z"/>
	<path class="st9" d="M152.5,225.6h-3.4v-6.1c0-1.7-0.6-2.6-1.8-2.6c-0.6,0-1.1,0.2-1.5,0.7c-0.4,0.5-0.6,1-0.6,1.7v6.3h-3.4v-11
		h3.4v1.7h0c0.8-1.3,2-2,3.5-2c2.4,0,3.7,1.5,3.7,4.5V225.6z"/>
	<path class="st9" d="M161.9,225.5c-0.5,0.3-1.3,0.4-2.3,0.4c-2.4,0-3.6-1.2-3.6-3.7v-5h-1.8v-2.5h1.8v-2.4l3.4-1v3.3h2.5v2.5h-2.5
		v4.4c0,1.1,0.5,1.7,1.4,1.7c0.4,0,0.7-0.1,1.1-0.3V225.5z"/>
	<path class="st9" d="M173.6,221.1h-7.2c0.1,1.6,1.1,2.4,3,2.4c1.2,0,2.3-0.3,3.2-0.9v2.4c-1,0.5-2.3,0.8-4,0.8
		c-1.8,0-3.2-0.5-4.1-1.5c-1-1-1.5-2.4-1.5-4.1c0-1.8,0.5-3.3,1.6-4.3c1.1-1.1,2.4-1.6,3.9-1.6c1.6,0,2.8,0.5,3.7,1.4
		c0.9,1,1.3,2.2,1.3,3.9V221.1z M170.4,219c0-1.6-0.6-2.4-1.9-2.4c-0.5,0-1,0.2-1.4,0.7s-0.6,1-0.7,1.7H170.4z"/>
	<path class="st9" d="M182.8,217.7c-0.4-0.2-0.9-0.3-1.4-0.3c-0.7,0-1.3,0.3-1.7,0.8c-0.4,0.5-0.6,1.3-0.6,2.2v5.3h-3.4v-11h3.4v2h0
		c0.5-1.5,1.5-2.2,2.9-2.2c0.4,0,0.6,0,0.8,0.1V217.7z"/>
	<path class="st9" d="M197.3,225.9c-2.2,0-4-0.7-5.4-2.2c-1.4-1.4-2.1-3.3-2.1-5.6c0-2.4,0.7-4.4,2.1-5.9c1.4-1.5,3.3-2.3,5.6-2.3
		c2.2,0,4,0.7,5.3,2.2c1.4,1.4,2,3.3,2,5.7c0,2.4-0.7,4.4-2.1,5.9S199.5,225.9,197.3,225.9z M197.4,213c-1.2,0-2.2,0.5-2.9,1.4
		c-0.7,0.9-1.1,2.1-1.1,3.6c0,1.5,0.4,2.7,1.1,3.6c0.7,0.9,1.7,1.3,2.8,1.3c1.2,0,2.1-0.4,2.8-1.3c0.7-0.9,1.1-2.1,1.1-3.6
		c0-1.6-0.3-2.8-1-3.7C199.5,213.4,198.6,213,197.4,213z"/>
	<path class="st9" d="M214.3,217.7c-0.4-0.2-0.9-0.3-1.4-0.3c-0.7,0-1.3,0.3-1.7,0.8c-0.4,0.5-0.6,1.3-0.6,2.2v5.3h-3.4v-11h3.4v2h0
		c0.5-1.5,1.5-2.2,2.9-2.2c0.4,0,0.6,0,0.8,0.1V217.7z"/>
	<path class="st9" d="M217.7,212.9c-0.6,0-1-0.2-1.4-0.5c-0.4-0.3-0.5-0.8-0.5-1.3c0-0.5,0.2-0.9,0.5-1.2s0.8-0.5,1.4-0.5
		c0.6,0,1.1,0.2,1.4,0.5c0.4,0.3,0.5,0.7,0.5,1.2c0,0.5-0.2,0.9-0.5,1.3C218.7,212.7,218.2,212.9,217.7,212.9z M219.3,225.6h-3.4
		v-11h3.4V225.6z"/>
	<path class="st9" d="M233,224.4c0,2-0.6,3.6-1.8,4.7c-1.2,1.1-2.9,1.7-5.1,1.7c-1.5,0-2.7-0.2-3.5-0.6v-2.9c1.1,0.7,2.3,1,3.4,1
		c1.1,0,2-0.3,2.7-0.9c0.6-0.6,0.9-1.4,0.9-2.5v-0.9h0c-0.8,1.2-1.9,1.8-3.4,1.8c-1.4,0-2.5-0.5-3.3-1.5c-0.8-1-1.2-2.3-1.2-4
		c0-1.9,0.5-3.3,1.4-4.4c0.9-1.1,2.1-1.6,3.6-1.6c1.3,0,2.3,0.5,3,1.5h0v-1.3h3.4V224.4z M229.6,220.3v-0.9c0-0.7-0.2-1.3-0.6-1.8
		c-0.4-0.5-0.9-0.7-1.6-0.7c-0.8,0-1.3,0.3-1.8,0.9s-0.6,1.4-0.6,2.5c0,0.9,0.2,1.6,0.6,2.2c0.4,0.5,1,0.8,1.7,0.8
		c0.7,0,1.3-0.3,1.7-0.8C229.4,222,229.6,221.2,229.6,220.3z"/>
	<path class="st9" d="M237.5,212.9c-0.6,0-1-0.2-1.4-0.5c-0.4-0.3-0.5-0.8-0.5-1.3c0-0.5,0.2-0.9,0.5-1.2s0.8-0.5,1.4-0.5
		c0.6,0,1.1,0.2,1.4,0.5c0.4,0.3,0.5,0.7,0.5,1.2c0,0.5-0.2,0.9-0.5,1.3C238.6,212.7,238.1,212.9,237.5,212.9z M239.2,225.6h-3.4
		v-11h3.4V225.6z"/>
	<path class="st9" d="M252.7,225.6h-3.4v-6.1c0-1.7-0.6-2.6-1.8-2.6c-0.6,0-1.1,0.2-1.5,0.7c-0.4,0.5-0.6,1-0.6,1.7v6.3h-3.4v-11
		h3.4v1.7h0c0.8-1.3,2-2,3.5-2c2.4,0,3.7,1.5,3.7,4.5V225.6z"/>
</g>
<g class="st8">
	<path class="st9" d="M138.9,251.9c-0.4,0-0.7,0-1.1-0.2c-0.3-0.1-0.7-0.2-1-0.4c-0.3-0.2-0.6-0.4-0.9-0.6c-0.3-0.2-0.5-0.5-0.8-0.7
		c-0.3,0.2-0.6,0.4-1,0.7c-0.4,0.2-0.8,0.4-1.3,0.6c-0.5,0.2-1,0.3-1.6,0.5c-0.6,0.1-1.2,0.2-1.8,0.2c-0.8,0-1.6-0.1-2.3-0.3
		c-0.7-0.2-1.3-0.5-1.8-0.9c-0.5-0.4-0.9-0.9-1.2-1.5s-0.4-1.3-0.4-2c0-0.6,0.1-1.2,0.3-1.6c0.2-0.5,0.5-0.9,0.9-1.3
		c0.4-0.4,0.7-0.7,1.2-0.9c0.4-0.3,0.9-0.5,1.4-0.6c-0.2-0.2-0.4-0.4-0.7-0.6c-0.2-0.2-0.4-0.5-0.6-0.7c-0.2-0.3-0.3-0.6-0.4-0.9
		c-0.1-0.3-0.2-0.6-0.2-1c0-0.6,0.1-1.1,0.3-1.5c0.2-0.4,0.5-0.8,1-1.1c0.4-0.3,0.9-0.5,1.5-0.7c0.6-0.2,1.2-0.2,1.9-0.2
		c0.7,0,1.3,0.1,1.8,0.2s1,0.4,1.4,0.7c0.4,0.3,0.7,0.6,0.9,1.1c0.2,0.4,0.3,0.9,0.3,1.4c0,0.8-0.2,1.5-0.7,2.1
		c-0.5,0.6-1.1,1.1-2,1.4c0.3,0.2,0.7,0.3,1,0.5c0.3,0.2,0.6,0.4,0.9,0.7s0.6,0.5,0.9,0.9c0.3,0.3,0.6,0.7,0.8,1.1
		c0.6-0.7,1-1.5,1.3-2.4c0.3-0.8,0.4-1.7,0.4-2.6c0-0.3,0-0.5,0-0.8s-0.1-0.5-0.2-0.7h2.9c0.1,0.2,0.1,0.5,0.2,0.7
		c0,0.2,0.1,0.5,0.1,0.8c0,0.7-0.1,1.4-0.2,2c-0.1,0.7-0.4,1.3-0.6,1.9c-0.3,0.6-0.6,1.2-1,1.7s-0.8,1-1.2,1.5
		c0.4,0.4,0.7,0.6,1.1,0.8c0.4,0.2,0.7,0.3,1.1,0.3c0.3,0,0.7,0,1.1-0.1c0.4-0.1,0.7-0.2,0.9-0.3v2.6c-0.4,0.2-0.8,0.3-1.2,0.3
		C139.8,251.8,139.3,251.9,138.9,251.9z M129.8,249.3c0.4,0,0.8,0,1.2-0.1c0.4-0.1,0.7-0.2,1.1-0.3c0.3-0.1,0.6-0.3,0.9-0.5
		c0.3-0.2,0.5-0.4,0.8-0.6c-0.4-0.6-0.7-1.1-1.1-1.5c-0.4-0.4-0.7-0.7-1.1-1c-0.4-0.3-0.7-0.5-1-0.7c-0.3-0.2-0.7-0.4-1-0.5
		c-0.3,0.1-0.6,0.3-0.8,0.5c-0.3,0.2-0.5,0.4-0.7,0.6c-0.2,0.2-0.4,0.5-0.5,0.8c-0.1,0.3-0.2,0.6-0.2,1c0,0.3,0.1,0.7,0.2,0.9
		c0.1,0.3,0.3,0.5,0.5,0.7s0.5,0.4,0.8,0.5C129,249.3,129.4,249.3,129.8,249.3z M131.8,239.6c0-0.2,0-0.4-0.1-0.6
		c-0.1-0.2-0.2-0.3-0.3-0.4c-0.1-0.1-0.3-0.2-0.5-0.3c-0.2-0.1-0.4-0.1-0.5-0.1c-0.2,0-0.5,0-0.6,0.1c-0.2,0.1-0.4,0.2-0.5,0.3
		c-0.1,0.1-0.3,0.3-0.3,0.4c-0.1,0.2-0.1,0.3-0.1,0.5c0,0.4,0.1,0.8,0.4,1.1c0.3,0.3,0.6,0.6,0.9,0.8c0.2-0.1,0.5-0.2,0.7-0.3
		c0.2-0.1,0.4-0.3,0.6-0.4s0.3-0.3,0.4-0.5S131.8,239.8,131.8,239.6z"/>
	<path class="st9" d="M149.5,251.6v-15.4h5.5c5.5,0,8.2,2.5,8.2,7.5c0,2.4-0.7,4.3-2.2,5.7s-3.5,2.1-6,2.1H149.5z M153,239.1v9.8
		h1.7c1.5,0,2.7-0.5,3.5-1.4c0.9-0.9,1.3-2.1,1.3-3.7c0-1.5-0.4-2.6-1.3-3.5c-0.8-0.8-2-1.3-3.6-1.3H153z"/>
	<path class="st9" d="M175.3,247.1h-7.2c0.1,1.6,1.1,2.4,3,2.4c1.2,0,2.3-0.3,3.2-0.9v2.4c-1,0.5-2.3,0.8-4,0.8
		c-1.8,0-3.2-0.5-4.1-1.5c-1-1-1.5-2.4-1.5-4.1c0-1.8,0.5-3.3,1.6-4.3c1.1-1.1,2.4-1.6,3.9-1.6c1.6,0,2.8,0.5,3.7,1.4
		c0.9,1,1.3,2.2,1.3,3.9V247.1z M172.1,245c0-1.6-0.6-2.4-1.9-2.4c-0.5,0-1,0.2-1.4,0.7s-0.6,1-0.7,1.7H172.1z"/>
	<path class="st9" d="M176.6,251.3v-2.8c0.6,0.3,1.1,0.6,1.7,0.8c0.6,0.2,1.1,0.2,1.6,0.2c0.6,0,1.1-0.1,1.4-0.2
		c0.3-0.2,0.5-0.4,0.5-0.8c0-0.2-0.1-0.4-0.2-0.5c-0.2-0.1-0.4-0.3-0.6-0.4s-0.5-0.2-0.8-0.3c-0.3-0.1-0.6-0.2-0.8-0.3
		c-0.4-0.2-0.8-0.3-1.1-0.5c-0.3-0.2-0.6-0.4-0.8-0.6s-0.4-0.5-0.5-0.8s-0.2-0.7-0.2-1.1c0-0.6,0.1-1.1,0.4-1.6
		c0.3-0.4,0.6-0.8,1.1-1c0.4-0.3,1-0.5,1.5-0.6c0.6-0.1,1.2-0.2,1.8-0.2h4.9v-2.4l3.4-1v3.3h2.5v2.5h-2.5v4.4c0,1.1,0.5,1.7,1.4,1.7
		c0.4,0,0.7-0.1,1.1-0.3v2.5c-0.5,0.3-1.3,0.4-2.3,0.4c-2.4,0-3.6-1.2-3.6-3.7v-5h-4.7c-0.2,0-0.4,0-0.6,0c-0.2,0-0.4,0-0.5,0.1
		s-0.3,0.1-0.4,0.2c-0.1,0.1-0.1,0.2-0.1,0.3c0,0.2,0.1,0.3,0.2,0.4s0.3,0.2,0.5,0.3c0.2,0.1,0.4,0.2,0.7,0.3
		c0.3,0.1,0.5,0.2,0.8,0.2c0.5,0.2,0.9,0.3,1.2,0.5s0.7,0.4,0.9,0.7c0.3,0.3,0.5,0.5,0.6,0.9c0.1,0.3,0.2,0.7,0.2,1.2
		c0,0.7-0.1,1.2-0.4,1.7c-0.3,0.5-0.7,0.8-1.1,1.1c-0.5,0.3-1,0.5-1.6,0.6c-0.6,0.1-1.2,0.2-1.9,0.2
		C178.7,251.9,177.6,251.7,176.6,251.3z"/>
	<path class="st9" d="M195.7,238.9c-0.6,0-1-0.2-1.4-0.5c-0.4-0.3-0.5-0.8-0.5-1.3c0-0.5,0.2-0.9,0.5-1.2s0.8-0.5,1.4-0.5
		c0.6,0,1.1,0.2,1.4,0.5c0.4,0.3,0.5,0.7,0.5,1.2c0,0.5-0.2,0.9-0.5,1.3C196.8,238.7,196.3,238.9,195.7,238.9z M197.4,251.6H194v-11
		h3.4V251.6z"/>
	<path class="st9" d="M210.9,251.6h-3.4v-6.1c0-1.7-0.6-2.6-1.8-2.6c-0.6,0-1.1,0.2-1.5,0.7c-0.4,0.5-0.6,1-0.6,1.7v6.3h-3.4v-11
		h3.4v1.7h0c0.8-1.3,2-2,3.5-2c2.4,0,3.7,1.5,3.7,4.5V251.6z"/>
	<path class="st9" d="M222.7,251.6h-3.2v-1.6h0c-0.7,1.2-1.8,1.8-3.3,1.8c-1.1,0-1.9-0.3-2.5-0.9c-0.6-0.6-0.9-1.4-0.9-2.4
		c0-2.1,1.3-3.4,3.8-3.7l3-0.4c0-1.2-0.7-1.8-2-1.8c-1.3,0-2.6,0.4-3.7,1.2v-2.6c0.5-0.2,1.1-0.5,1.9-0.6c0.8-0.2,1.6-0.3,2.2-0.3
		c3.1,0,4.7,1.6,4.7,4.7V251.6z M219.5,247.2v-0.7l-2,0.3c-1.1,0.1-1.7,0.6-1.7,1.5c0,0.4,0.1,0.7,0.4,1c0.3,0.2,0.6,0.4,1.1,0.4
		c0.6,0,1.2-0.2,1.6-0.7C219.3,248.4,219.5,247.8,219.5,247.2z"/>
	<path class="st9" d="M232.1,251.5c-0.5,0.3-1.3,0.4-2.3,0.4c-2.4,0-3.6-1.2-3.6-3.7v-5h-1.8v-2.5h1.8v-2.4l3.4-1v3.3h2.5v2.5h-2.5
		v4.4c0,1.1,0.5,1.7,1.4,1.7c0.4,0,0.7-0.1,1.1-0.3V251.5z"/>
	<path class="st9" d="M235.7,238.9c-0.6,0-1-0.2-1.4-0.5c-0.4-0.3-0.5-0.8-0.5-1.3c0-0.5,0.2-0.9,0.5-1.2s0.8-0.5,1.4-0.5
		c0.6,0,1.1,0.2,1.4,0.5c0.4,0.3,0.5,0.7,0.5,1.2c0,0.5-0.2,0.9-0.5,1.3C236.7,238.7,236.3,238.9,235.7,238.9z M237.4,251.6H234v-11
		h3.4V251.6z"/>
	<path class="st9" d="M245.5,251.9c-1.8,0-3.3-0.5-4.3-1.5c-1-1-1.6-2.4-1.6-4.2c0-1.8,0.5-3.2,1.6-4.3c1.1-1,2.6-1.5,4.4-1.5
		c1.8,0,3.3,0.5,4.3,1.5c1,1,1.6,2.4,1.6,4.1c0,1.8-0.5,3.3-1.6,4.3C248.8,251.4,247.3,251.9,245.5,251.9z M245.6,243
		c-0.8,0-1.4,0.3-1.9,0.8c-0.4,0.6-0.7,1.3-0.7,2.3c0,2.1,0.9,3.2,2.6,3.2c1.6,0,2.4-1.1,2.4-3.3C248,244,247.2,243,245.6,243z"/>
	<path class="st9" d="M264.3,251.6h-3.4v-6.1c0-1.7-0.6-2.6-1.8-2.6c-0.6,0-1.1,0.2-1.5,0.7c-0.4,0.5-0.6,1-0.6,1.7v6.3h-3.4v-11
		h3.4v1.7h0c0.8-1.3,2-2,3.5-2c2.4,0,3.7,1.5,3.7,4.5V251.6z"/>
</g>
<g id="Group_61996" transform="translate(602.811 0)">
	<g id="Group_61995" transform="translate(0 0)">
		<g id="Group_62931" transform="translate(0)">
			<path id="Path_98305" class="st0" d="M40.2,19.9c28.3-5.7,38.2,16.4,69.1,20.9s44.4-20.1,72.6-6s45.2,52.8,32.5,78.3
				s-56.8,11.2-95.8,22.3s-48.7,30.9-78.3,17.9S0,118.3,0,83.2S11.8,25.6,40.2,19.9z"/>
			<path id="Path_98426" class="st1" d="M45.4,17.5c27.8-5.6,37.5,16.1,67.8,20.5s43.6-19.7,71.2-5.9S228.8,84,216.3,109
				s-55.7,11-94,21.9s-47.8,30.4-76.9,17.6S5.9,114.1,5.9,79.7S17.6,23,45.4,17.5z"/>
			<g class="st8">
				<path class="st9" d="M62.8,189.6h-4l-2.4-4c-0.2-0.3-0.4-0.6-0.5-0.8s-0.3-0.4-0.5-0.6c-0.2-0.2-0.3-0.3-0.5-0.4
					c-0.2-0.1-0.4-0.1-0.6-0.1h-0.9v5.9h-3.5v-15.4h5.5c3.7,0,5.6,1.4,5.6,4.2c0,0.5-0.1,1-0.2,1.5c-0.2,0.5-0.4,0.9-0.7,1.2
					s-0.7,0.7-1.1,0.9c-0.4,0.3-0.9,0.5-1.4,0.6v0c0.2,0.1,0.5,0.2,0.7,0.3c0.2,0.2,0.4,0.3,0.6,0.6s0.4,0.4,0.6,0.7
					c0.2,0.2,0.3,0.5,0.5,0.7L62.8,189.6z M53.4,176.8v4.3h1.5c0.7,0,1.3-0.2,1.8-0.6c0.5-0.4,0.7-1,0.7-1.6c0-1.3-0.8-2-2.4-2H53.4
					z"/>
				<path class="st9" d="M73.3,185h-7.2c0.1,1.6,1.1,2.4,3,2.4c1.2,0,2.3-0.3,3.2-0.9v2.4c-1,0.5-2.3,0.8-4,0.8
					c-1.8,0-3.2-0.5-4.1-1.5c-1-1-1.5-2.4-1.5-4.1c0-1.8,0.5-3.3,1.6-4.3s2.4-1.6,3.9-1.6c1.6,0,2.8,0.5,3.7,1.4
					c0.9,1,1.3,2.2,1.3,3.9V185z M70.1,182.9c0-1.6-0.6-2.4-1.9-2.4c-0.5,0-1,0.2-1.4,0.7s-0.6,1-0.7,1.7H70.1z"/>
				<path class="st9" d="M78.7,189.6h-3.4v-16.3h3.4V189.6z"/>
				<path class="st9" d="M90.7,189.6h-3.2V188h0c-0.7,1.2-1.8,1.8-3.3,1.8c-1.1,0-1.9-0.3-2.5-0.9c-0.6-0.6-0.9-1.4-0.9-2.4
					c0-2.1,1.3-3.4,3.8-3.7l3-0.4c0-1.2-0.7-1.8-2-1.8c-1.3,0-2.6,0.4-3.7,1.2v-2.6c0.5-0.2,1.1-0.5,1.9-0.6
					c0.8-0.2,1.6-0.3,2.2-0.3c3.1,0,4.7,1.6,4.7,4.7V189.6z M87.5,185.1v-0.7l-2,0.3c-1.1,0.1-1.7,0.6-1.7,1.5c0,0.4,0.1,0.7,0.4,1
					c0.3,0.2,0.6,0.4,1.1,0.4c0.6,0,1.2-0.2,1.6-0.7C87.3,186.3,87.5,185.8,87.5,185.1z"/>
				<path class="st9" d="M104,178.6l-3.6,5.3l3.6,5.7h-3.9l-1.6-3c-0.1-0.2-0.3-0.6-0.5-1h0c-0.1,0.3-0.3,0.6-0.4,1l-1.6,3H92
					l3.7-5.5l-3.5-5.5h3.9l1.6,3.1c0.2,0.4,0.4,0.8,0.4,1h0c0.1-0.3,0.3-0.7,0.5-1.1l1.6-3.1H104z"/>
				<path class="st9" d="M126,189.8c-0.4,0-0.7,0-1.1-0.2c-0.3-0.1-0.7-0.2-1-0.4c-0.3-0.2-0.6-0.4-0.9-0.6
					c-0.3-0.2-0.5-0.5-0.8-0.7c-0.3,0.2-0.6,0.4-1,0.7s-0.8,0.4-1.3,0.6c-0.5,0.2-1,0.3-1.6,0.5c-0.6,0.1-1.2,0.2-1.8,0.2
					c-0.8,0-1.6-0.1-2.3-0.3c-0.7-0.2-1.3-0.5-1.8-0.9c-0.5-0.4-0.9-0.9-1.2-1.5s-0.4-1.3-0.4-2c0-0.6,0.1-1.2,0.3-1.6
					c0.2-0.5,0.5-0.9,0.9-1.3s0.7-0.7,1.2-0.9s0.9-0.5,1.4-0.6c-0.2-0.2-0.4-0.4-0.7-0.6c-0.2-0.2-0.4-0.5-0.6-0.7
					c-0.2-0.3-0.3-0.6-0.4-0.9c-0.1-0.3-0.2-0.6-0.2-1c0-0.6,0.1-1.1,0.3-1.5s0.5-0.8,1-1.1c0.4-0.3,0.9-0.5,1.5-0.7
					s1.2-0.2,1.9-0.2c0.7,0,1.3,0.1,1.8,0.2s1,0.4,1.4,0.7s0.7,0.6,0.9,1.1c0.2,0.4,0.3,0.9,0.3,1.4c0,0.8-0.2,1.5-0.7,2.1
					c-0.5,0.6-1.1,1.1-2,1.4c0.3,0.2,0.7,0.3,1,0.5s0.6,0.4,0.9,0.7s0.6,0.5,0.9,0.9c0.3,0.3,0.6,0.7,0.8,1.1c0.6-0.7,1-1.5,1.3-2.4
					c0.3-0.8,0.4-1.7,0.4-2.6c0-0.3,0-0.5,0-0.8s-0.1-0.5-0.2-0.7h2.9c0.1,0.2,0.1,0.5,0.2,0.7s0.1,0.5,0.1,0.8c0,0.7-0.1,1.4-0.2,2
					c-0.1,0.7-0.4,1.3-0.6,1.9s-0.6,1.2-1,1.7s-0.8,1-1.2,1.5c0.4,0.4,0.7,0.6,1.1,0.8c0.4,0.2,0.7,0.3,1.1,0.3c0.3,0,0.7,0,1.1-0.1
					c0.4-0.1,0.7-0.2,0.9-0.3v2.6c-0.4,0.2-0.8,0.3-1.2,0.3C126.9,189.8,126.5,189.8,126,189.8z M116.9,187.2c0.4,0,0.8,0,1.2-0.1
					c0.4-0.1,0.7-0.2,1.1-0.3s0.6-0.3,0.9-0.5c0.3-0.2,0.5-0.4,0.8-0.6c-0.4-0.6-0.7-1.1-1.1-1.5c-0.4-0.4-0.7-0.7-1.1-1
					c-0.4-0.3-0.7-0.5-1-0.7c-0.3-0.2-0.7-0.4-1-0.5c-0.3,0.1-0.6,0.3-0.8,0.5c-0.3,0.2-0.5,0.4-0.7,0.6c-0.2,0.2-0.4,0.5-0.5,0.8
					c-0.1,0.3-0.2,0.6-0.2,1c0,0.3,0.1,0.7,0.2,0.9s0.3,0.5,0.5,0.7s0.5,0.4,0.8,0.5C116.2,187.2,116.6,187.2,116.9,187.2z
					 M118.9,177.5c0-0.2,0-0.4-0.1-0.6s-0.2-0.3-0.3-0.4c-0.1-0.1-0.3-0.2-0.5-0.3c-0.2-0.1-0.4-0.1-0.5-0.1c-0.2,0-0.5,0-0.6,0.1
					c-0.2,0.1-0.4,0.2-0.5,0.3c-0.1,0.1-0.3,0.3-0.3,0.4c-0.1,0.2-0.1,0.3-0.1,0.5c0,0.4,0.1,0.8,0.4,1.1s0.6,0.6,0.9,0.8
					c0.2-0.1,0.5-0.2,0.7-0.3c0.2-0.1,0.4-0.3,0.6-0.4s0.3-0.3,0.4-0.5S118.9,177.8,118.9,177.5z"/>
				<path class="st9" d="M147.5,177h-4.4v12.6h-3.5V177h-4.4v-2.8h12.2V177z"/>
				<path class="st9" d="M154.8,181.6c-0.4-0.2-0.9-0.3-1.4-0.3c-0.7,0-1.3,0.3-1.7,0.8c-0.4,0.5-0.6,1.3-0.6,2.2v5.3h-3.4v-11h3.4
					v2h0c0.5-1.5,1.5-2.2,2.9-2.2c0.4,0,0.6,0,0.8,0.1V181.6z"/>
				<path class="st9" d="M165.5,189.6h-3.2V188h0c-0.7,1.2-1.8,1.8-3.3,1.8c-1.1,0-1.9-0.3-2.5-0.9c-0.6-0.6-0.9-1.4-0.9-2.4
					c0-2.1,1.3-3.4,3.8-3.7l3-0.4c0-1.2-0.7-1.8-2-1.8c-1.3,0-2.6,0.4-3.7,1.2v-2.6c0.5-0.2,1.1-0.5,1.9-0.6
					c0.8-0.2,1.6-0.3,2.2-0.3c3.1,0,4.7,1.6,4.7,4.7V189.6z M162.3,185.1v-0.7l-2,0.3c-1.1,0.1-1.7,0.6-1.7,1.5c0,0.4,0.1,0.7,0.4,1
					c0.3,0.2,0.6,0.4,1.1,0.4c0.6,0,1.2-0.2,1.6-0.7C162.1,186.3,162.3,185.8,162.3,185.1z"/>
				<path class="st9" d="M176.5,189.2c-0.8,0.4-1.9,0.7-3.3,0.7c-1.7,0-3.1-0.5-4.1-1.5s-1.6-2.3-1.6-4c0-1.9,0.6-3.3,1.7-4.4
					c1.1-1.1,2.6-1.6,4.5-1.6c1.3,0,2.2,0.2,2.8,0.5v2.9c-0.7-0.5-1.5-0.8-2.4-0.8c-1,0-1.7,0.3-2.3,0.9c-0.6,0.6-0.9,1.4-0.9,2.4
					c0,1,0.3,1.7,0.8,2.3c0.5,0.6,1.3,0.8,2.2,0.8c0.8,0,1.7-0.3,2.5-0.8V189.2z"/>
				<path class="st9" d="M189.8,189.6h-4.1l-3.5-5.5h0v5.5h-3.4v-16.3h3.4v10.4h0l3.3-5.1h4l-3.9,5.2L189.8,189.6z"/>
			</g>
			<g class="st8">
				<path class="st9" d="M75.1,201.6l-4.5,11.9c-1.1,2.9-2.7,4.3-4.9,4.3c-0.8,0-1.5-0.1-2-0.3v-2.7c0.5,0.3,0.9,0.4,1.5,0.4
					c0.9,0,1.5-0.4,1.8-1.2l0.6-1.4l-4.5-11h3.8l2.1,6.7c0.1,0.4,0.2,0.9,0.3,1.5h0c0.1-0.4,0.2-0.9,0.4-1.5l2.1-6.7H75.1z"/>
				<path class="st9" d="M81.5,212.8c-1.8,0-3.3-0.5-4.3-1.5c-1-1-1.6-2.4-1.6-4.2c0-1.8,0.5-3.2,1.6-4.3c1.1-1,2.6-1.5,4.4-1.5
					c1.8,0,3.3,0.5,4.3,1.5c1,1,1.6,2.4,1.6,4.1c0,1.8-0.5,3.3-1.6,4.3C84.8,212.3,83.4,212.8,81.5,212.8z M81.6,203.9
					c-0.8,0-1.4,0.3-1.9,0.8s-0.7,1.3-0.7,2.3c0,2.1,0.9,3.2,2.6,3.2c1.6,0,2.4-1.1,2.4-3.3C84,204.9,83.2,203.9,81.6,203.9z"/>
				<path class="st9" d="M100.2,212.6h-3.4v-1.7h-0.1c-0.8,1.3-2,1.9-3.4,1.9c-2.5,0-3.8-1.5-3.8-4.6v-6.6h3.4v6.3
					c0,1.6,0.6,2.3,1.8,2.3c0.6,0,1.1-0.2,1.5-0.6c0.4-0.4,0.5-1,0.5-1.7v-6.3h3.4V212.6z"/>
				<path class="st9" d="M110.2,204.6c-0.4-0.2-0.9-0.3-1.4-0.3c-0.7,0-1.3,0.3-1.7,0.8c-0.4,0.5-0.6,1.3-0.6,2.2v5.3H103v-11h3.4v2
					h0c0.5-1.5,1.5-2.2,2.9-2.2c0.4,0,0.6,0,0.8,0.1V204.6z"/>
				<path class="st9" d="M135.7,212.6h-3.4v-9.2c0-1,0-2.1,0.1-3.3h-0.1c-0.2,0.9-0.3,1.6-0.5,2l-3.6,10.5h-2.8l-3.7-10.4
					c-0.1-0.3-0.3-1-0.5-2.1h-0.1c0.1,1.5,0.1,2.9,0.1,4v8.5h-3.1v-15.4h5.1l3.1,9.1c0.3,0.7,0.4,1.5,0.5,2.2h0.1
					c0.2-0.9,0.4-1.6,0.6-2.2l3.1-9.1h5V212.6z"/>
				<path class="st9" d="M144.1,212.8c-1.8,0-3.3-0.5-4.3-1.5c-1-1-1.6-2.4-1.6-4.2c0-1.8,0.5-3.2,1.6-4.3c1.1-1,2.6-1.5,4.4-1.5
					c1.8,0,3.3,0.5,4.3,1.5c1,1,1.6,2.4,1.6,4.1c0,1.8-0.5,3.3-1.6,4.3C147.5,212.3,146,212.8,144.1,212.8z M144.2,203.9
					c-0.8,0-1.4,0.3-1.9,0.8s-0.7,1.3-0.7,2.3c0,2.1,0.9,3.2,2.6,3.2c1.6,0,2.4-1.1,2.4-3.3C146.7,204.9,145.9,203.9,144.2,203.9z"
					/>
				<path class="st9" d="M162.8,201.6l-4.1,11h-3.9l-3.9-11h3.6l1.9,6.8c0.2,0.8,0.3,1.4,0.4,2h0c0-0.5,0.2-1.1,0.4-1.9l2-6.8H162.8
					z"/>
				<path class="st9" d="M173.9,208h-7.2c0.1,1.6,1.1,2.4,3,2.4c1.2,0,2.3-0.3,3.2-0.9v2.4c-1,0.5-2.3,0.8-4,0.8
					c-1.8,0-3.2-0.5-4.1-1.5c-1-1-1.5-2.4-1.5-4.1c0-1.8,0.5-3.3,1.6-4.3s2.4-1.6,3.9-1.6c1.6,0,2.8,0.5,3.7,1.4
					c0.9,1,1.3,2.2,1.3,3.9V208z M170.8,205.9c0-1.6-0.6-2.4-1.9-2.4c-0.5,0-1,0.2-1.4,0.7s-0.6,1-0.7,1.7H170.8z"/>
			</g>
		</g>
	</g>
</g>
<path id="Path_98312" class="st0" d="M955.3,268.5c-28.3-5.7-38.2,16.4-69.1,20.9c-30.8,4.5-44.4-20.1-72.6-6s-45.2,52.8-32.5,78.3
	s56.8,11.2,95.8,22.3c39,11.1,48.7,30.9,78.3,17.9s40.2-34.9,40.2-70S983.6,274.1,955.3,268.5z"/>
<path id="Path_98427" class="st1" d="M961.4,265.5c-28.3-5.7-38.2,16.4-69.1,20.9c-30.8,4.5-44.4-20.1-72.6-6
	c-28.2,14.1-45.2,52.8-32.5,78.3S844,370,883,381c39,11.1,48.7,30.9,78.3,17.9s40.2-34.9,40.2-70S989.7,271.2,961.4,265.5z"/>
<g>
	<path class="st10" d="M150,183.1c0,0-0.1-0.1-0.1-0.1c-0.5,0-1-0.2-1.4,0.3c0,0,0,0,0,0c-0.4,0-0.9-0.2-1.2,0.2
		c-0.8,0.4-1.9,0-2.7,0.6c-3.5,0-7,0-10.5,0c-1.9-0.7-4-0.6-5.9-1.1c-23.3-5.4-38.5-19.5-45.1-42.5c-3.6-12.6-2.4-25.1,2.7-37.2
		c0.1-0.3,0.3-0.5,0.4-0.8c1.7,2.4,3.4,4.8,5.1,7.2c1.4,2,2.8,4.1,4.2,6.2c0.2,0.3,0.5,1.1,0.9,0.1c0.1-0.2,0.2-0.3,0.3-0.5
		c0,0,0,0,0,0c0.3-0.4,0.6-0.8,0.9-1.2c4.3-6.2,8.5-12.5,12.9-18.7c4.8-6.8,5.4-13.8,1.6-21.2c6.1-3.1,12.5-5.3,19.4-6.2
		c5.7-0.8,11.4-0.7,17.1,0.1c3.1,4.5,6.2,8.9,9.4,13.4c0.4-0.3,0.6-0.6,0.8-1c0.1-0.1,0.1-0.2,0.2-0.3c0,0,0.1-0.1,0.1-0.1
		c1.2-1.7,2.5-3.5,3.7-5.2c0.5,0.1,0.9,0.4,1.3,0.7c5.4,3.6,9.7,8.2,13.3,13.5c7.2,10.5,10.4,22.2,11,34.8c0.2,4.4-0.2,8.9-1,13.2
		c-1.7,9.9-5.3,19.2-11.4,27.3c-6.3,8.2-14,14.5-24,17.6C151.3,182.4,150.5,182.4,150,183.1z M121.8,164.8
		C121.8,164.8,121.8,164.8,121.8,164.8c5-7.3,10-14.5,15-21.8c1.8-2.7,2.5-5.8,2.7-9.1c0.4-9.7-7.6-18.5-17.2-18.9
		c-1.9-0.2-3.7,0-5.5,0.4c-12.6,3-18.3,17.3-11.3,28.2c3.5,5.4,7.3,10.7,11,16.1c1.3,1.9,2.7,3.9,4,5.8c0.3,0.5,0.6,1,0.9,0
		C121.5,165.2,121.6,165,121.8,164.8z M160.1,131.1c3.7,0,7.5,0,11.2,0c1.8,0,2.7-0.8,2.8-2.2c0-1.5-0.9-2.4-2.8-2.4
		c-7.4,0-14.7,0-22.1,0c-1.9,0-2.8,0.8-2.8,2.3c0,1.5,1,2.2,2.9,2.2C152.9,131.1,156.5,131.1,160.1,131.1z M152.9,140.4
		c1.4,0,2.9,0,4.3,0c1.6,0,2.6-0.9,2.7-2.2c0-1.3-1-2.4-2.7-2.4c-2.8,0-5.7,0-8.5,0c-1.7,0-2.7,1-2.7,2.3c0,1.4,1.1,2.3,2.7,2.3
		C150.1,140.4,151.5,140.4,152.9,140.4z"/>
	<path class="st11" d="M150,183.1c0.5-0.7,1.3-0.7,2-0.9c10-3.1,17.8-9.4,24-17.6c6.2-8.1,9.7-17.3,11.4-27.3
		c0.7-4.4,1.2-8.8,1-13.2c-0.6-12.6-3.8-24.3-11-34.8c-3.6-5.3-7.9-9.9-13.3-13.5c-0.4-0.3-0.8-0.6-1.3-0.7c0.4-0.6,0.9-1.2,1.3-1.9
		c16.1,7.9,26.8,20.4,31.6,37.8c8.7,31.8-11.7,65.1-44,71.8C151.1,183,150.5,183,150,183.1z"/>
	<path class="st12" d="M158.7,80.8c-0.2,0.4-0.4,0.8-0.8,1c-3.1-4.5-6.2-8.9-9.4-13.4c-2.1-3.1-4.2-6.1-6.2-9.2
		c-5.7-9-2.9-20.6,6.2-26c3.5-2,7.3-2.9,11.3-2.4c0.4,0.8,1.3,0.9,1.8,1.5c4,4.2,5,9.4,5.3,14.9c-0.2-0.5-0.3-0.9-0.5-1.4
		c-1.4-3.6-4.9-6-8.7-5.8c-4.9-0.1-9.1,4-9.2,9c-0.1,5.1,4,9.3,9.2,9.4c0.3,0,0.6,0.1,0.9,0c4.4-0.5,7-3.1,8.3-7.2
		c0,3.1-0.7,6-1.6,8.9c-2.1,6.3-4.3,12.5-6.4,18.8c-0.2,0.5-0.4,0.9,0,1.4c0,0.1,0,0.1-0.1,0.1c-0.1-0.1-0.2-0.2-0.3,0
		C158.5,80.5,158.6,80.6,158.7,80.8z"/>
	<path class="st12" d="M96.4,116c-0.4,1.1-0.7,0.3-0.9-0.1c-1.4-2-2.8-4.1-4.2-6.2c-1.7-2.4-3.4-4.8-5.1-7.2
		c-1.9-2.8-3.8-5.6-5.7-8.4c-7-10.9-1.3-25.2,11.3-28.2c2.1-0.5,4.2-0.7,6.4-0.3c0.9,1.1,2.1,1.7,2.9,2.9c2.6,3.9,3.9,8.1,3.8,12.7
		c-0.2-0.4-0.4-0.9-0.6-1.3c-1.8-3.3-4.4-5.1-8.2-5.1c-5-0.2-9.3,4-9.3,9.2c0,5.2,4.2,9.3,9.3,9.2c0.2,0,0.4,0.1,0.6,0.1
		c4.2-0.4,6.8-2.8,8.3-6.6c0.3,1.4-0.1,2.7-0.4,4c-1.4,6.2-3.9,12-5.8,18c-0.7,2.3-1.8,4.5-2.1,7c0,0,0,0,0,0
		C96.7,115.7,96.6,115.8,96.4,116z"/>
	<path class="st13" d="M105,81.3c0.1-4.6-1.3-8.9-3.8-12.7c-0.8-1.2-2.1-1.8-2.9-2.9c6.1,0.7,10.5,3.9,13.8,8.9
		c3.9,7.4,3.2,14.4-1.6,21.2c-4.4,6.2-8.6,12.4-12.9,18.7c-0.3,0.4-0.6,0.8-0.9,1.2c0.2-2.5,1.4-4.7,2.1-7c1.9-6,4.5-11.8,5.8-18
		c0.3-1.3,0.7-2.6,0.4-4C105.4,84.8,105.4,83,105,81.3z"/>
	<path class="st13" d="M159,80.3c-0.4-0.5-0.1-0.9,0-1.4c2.1-6.3,4.3-12.5,6.4-18.8c1-2.9,1.6-5.8,1.6-8.9c0-1.3,0-2.7,0-4
		c-0.4-5.5-1.3-10.7-5.3-14.9c-0.6-0.6-1.4-0.7-1.8-1.5c13.7,1.6,21,16.7,13.5,28.4c-2.7,4.3-5.7,8.4-8.6,12.6
		c-0.3,0.4-0.6,0.9-0.9,1.4c-0.4,0.6-0.9,1.2-1.3,1.9C161.5,76.8,160.2,78.6,159,80.3z"/>
	<path class="st14" d="M197.2,46.9c-3.7,0-7.4,0-11.1,0c-1.7,0-2.8-0.9-2.8-2.3c0-1.4,1-2.3,2.7-2.3c7.4,0,14.9,0,22.3,0
		c1.7,0,2.7,0.9,2.8,2.3c0,1.5-1,2.3-2.9,2.3C204.6,46.9,200.9,46.9,197.2,46.9z"/>
	<path class="st14" d="M190,56.2c-1.5,0-3,0-4.5,0c-1.5,0-2.5-1-2.5-2.4c0-1.3,1-2.2,2.5-2.2c3,0,6,0,9,0c1.5,0,2.4,0.9,2.4,2.3
		c0,1.4-1,2.3-2.5,2.3C192.9,56.2,191.5,56.2,190,56.2z"/>
	<path class="st11" d="M148.6,183.3c0.3-0.5,0.9-0.3,1.4-0.3C149.6,183.4,149,183.3,148.6,183.3z"/>
	<path class="st11" d="M147.4,183.5c0.3-0.4,0.8-0.2,1.2-0.2C148.2,183.6,147.8,183.5,147.4,183.5z"/>
	<path class="st12" d="M121.3,165.4c-0.3,1-0.6,0.5-0.9,0c-1.3-1.9-2.7-3.9-4-5.8c-3.7-5.3-7.4-10.6-11-16.1
		c-7.1-10.8-1.3-25.1,11.3-28.2c1.8-0.4,3.6-0.6,5.5-0.4c0.9,0.4,1.7,0.9,2.5,1.6c4,3.9,5,9,5.3,14.3c-0.2-0.4-0.4-0.9-0.6-1.3
		c-1.5-3.3-4.9-5.5-8.3-5.3c-5-0.3-9.3,3.9-9.3,9.2c0,5.2,4.3,9.4,9.3,9.2c0.2,0,0.5,0.1,0.7,0c4.1-0.5,6.7-2.8,8.2-6.6
		c0.3,3.4-0.8,6.5-1.9,9.6c-2,6-4.1,12-6.2,18.1c-0.1,0.4-0.2,0.8,0,1.1c0,0,0,0,0,0C121.3,164.8,121.3,165.1,121.3,165.4z"/>
	<path class="st13" d="M129.9,130.9c-0.3-5.3-1.3-10.4-5.3-14.3c-0.7-0.7-1.6-1.2-2.5-1.6c9.6,0.4,17.6,9.3,17.2,18.9
		c-0.1,3.3-0.9,6.4-2.7,9.1c-4.9,7.3-10,14.6-15,21.8c-0.2-0.4-0.1-0.8,0-1.1c2.1-6,4.1-12,6.2-18.1c1-3.1,2.1-6.2,1.9-9.6
		C130.2,134.3,130.2,132.6,129.9,130.9z"/>
	<path class="st14" d="M160.1,131.1c-3.6,0-7.2,0-10.8,0c-1.9,0-2.9-0.8-2.9-2.2c0-1.5,0.9-2.3,2.8-2.3c7.4,0,14.7,0,22.1,0
		c1.9,0,2.8,0.8,2.8,2.4c0,1.4-1,2.2-2.8,2.2C167.6,131.1,163.8,131.1,160.1,131.1z"/>
	<path class="st14" d="M152.9,140.4c-1.4,0-2.8,0-4.2,0c-1.7,0-2.7-1-2.7-2.3c0-1.3,1.1-2.3,2.7-2.3c2.8,0,5.7,0,8.5,0
		c1.6,0,2.7,1.1,2.7,2.4c0,1.3-1.1,2.2-2.7,2.2C155.8,140.4,154.3,140.4,152.9,140.4z"/>
	<path class="st13" d="M158.7,80.8c0-0.1-0.2-0.3-0.1-0.4c0.1-0.2,0.2-0.1,0.3,0C158.8,80.6,158.8,80.7,158.7,80.8z"/>
	<path class="st13" d="M121.3,165.4c0-0.3,0-0.6,0.4-0.6C121.6,165,121.5,165.2,121.3,165.4z"/>
	<path class="st13" d="M96.4,116c0.1-0.2,0.2-0.3,0.3-0.5C96.7,115.7,96.6,115.8,96.4,116z"/>
	<path class="st15" d="M167.1,47.3c0,1.3,0,2.7,0,4c-1.3,4.1-4,6.6-8.3,7.2c-0.3,0-0.6,0-0.9,0c0-6.1,0-12.3,0-18.4
		c3.8-0.1,7.3,2.2,8.7,5.8C166.7,46.4,166.9,46.8,167.1,47.3z"/>
	<path class="st16" d="M157.9,40.1c0,6.1,0,12.3,0,18.4c-5.2-0.1-9.3-4.3-9.2-9.4C148.8,44,152.9,39.9,157.9,40.1z"/>
	<path class="st16" d="M96.1,93.1c-5.1,0.2-9.3-4-9.3-9.2c0-5.2,4.3-9.4,9.3-9.2C96.1,80.9,96.1,87,96.1,93.1z"/>
	<path class="st15" d="M96.1,93.1c0-6.1,0-12.2,0-18.3c3.8,0,6.5,1.8,8.2,5.1c0.2,0.4,0.4,0.9,0.6,1.3c0.4,1.8,0.4,3.6,0,5.4
		c-1.5,3.8-4.1,6.2-8.3,6.6C96.5,93.2,96.3,93.2,96.1,93.1z"/>
	<path class="st16" d="M121,142.6c-5.1,0.2-9.3-4-9.3-9.2c0-5.2,4.3-9.4,9.3-9.2C121,130.4,121,136.5,121,142.6z"/>
	<path class="st15" d="M121,142.6c0-6.1,0-12.2,0-18.3c3.5-0.1,6.8,2,8.3,5.3c0.2,0.4,0.4,0.9,0.6,1.3c0.3,1.7,0.3,3.4,0,5.1
		c-1.4,3.8-4,6.1-8.2,6.6C121.5,142.7,121.2,142.6,121,142.6z"/>
</g>
<g>
	<path class="st17" d="M385.9,232.5c0.4-1.3,0.8-2.6,1.2-4.1c-1.2-0.7-2.4-1.4-3.5-2.1c-2-1.3-2.5-2.9-1.3-4.9
		c2.1-3.7,4.2-7.3,6.3-10.9c1.2-2.1,2.8-2.5,4.9-1.4c0.6,0.3,1.2,0.7,1.8,1c0.6,0.3,1.2,0.6,1.9,1c6.7-7.1,14.7-11.8,24.1-14
		c0.4-1.3,0.1-2.6,0.2-3.9c0.1-2.6,1.2-3.8,3.8-3.8c4.1,0,8.2,0,12.2,0c2.6,0,3.8,1.2,3.9,3.8c0,1.2,0,2.5,0,3.8
		c2.2,0.7,4.4,1.3,6.5,2.1c6.3,2.4,11.8,6,16.5,10.8c1,1,1.7,1.4,2.9,0.4c0.6-0.5,1.4-0.9,2.1-1.2c1.9-1,3.5-0.6,4.6,1.2
		c2.2,3.7,4.4,7.5,6.5,11.3c1.1,1.9,0.6,3.4-1.2,4.7c-0.1,0.1-0.2,0.1-0.4,0.2c-3.4,2.2-3.4,2.2-2.2,6.1c0.5,3.3,1,6.6,1.1,9.9
		c-0.1,3.8-0.2,7.6-1.5,11.1c-0.9,2.5,0,3.5,2,4.6c2.7,1.4,3,2.4,2.2,5.3c-2.2,3.6-4.3,7.2-6.5,10.8c-1.4,2.3-2.9,2.6-5.2,1.4
		c-0.5-0.3-1.2-0.5-1.6-0.9c-1.2-1.1-2.1-0.6-3.1,0.4c-5.7,5.6-12.3,9.7-20.1,11.9c-3,0.9-3,0.9-2.8,3.9c0,0.8-0.1,1.6-0.1,2.3
		c-1,1.8-2.5,2.3-4.5,2.2c-3.7-0.1-7.3-0.1-11,0c-1.9,0.1-3.4-0.5-4.3-2.2c0-0.8-0.1-1.6-0.1-2.4c0.2-3.1,0.2-3.1-2.6-3.9
		c-7.4-2.1-14-5.8-19.5-11.2c-1.8-1.8-3-1.9-5-0.6c-3.2,2-4.4,1.5-6.3-1.8c-1.9-3.3-3.9-6.6-5.9-9.9c-0.9-2.9-0.6-3.8,2.1-5.4
		c0.6-0.3,1.2-0.7,1.8-1c0.8-0.4,0.9-0.9,0.7-1.8c-1.2-4.2-1.8-8.5-1.8-12.8C384.9,239.1,385.5,235.8,385.9,232.5z M398.3,241.6
		c-0.9,17.9,14.3,33.7,32.6,33.9c18.8,0.2,34.2-15.2,33.7-33.5c0.4-2.1-0.1-4.1-0.5-6.1c-5.5-24.9-34.2-35.1-53.9-18.9
		C402.5,223.2,398.3,231.5,398.3,241.6z"/>
	<path class="st18" d="M507.8,328.5c3.1,0,6.2,0,9.3,0c2.8,0,4,1.4,3.9,4.1c-0.3,8.2-7.2,15.3-15.6,15.7c-0.6,0-1.1,0-1.7,0
		c-50.5,0-100.9,0-151.4,0c-9,0-15.9-5.8-17.2-14.5c-0.6-3.9,0.7-5.4,4.7-5.4c2.8,0,5.7,0,8.5,0c1,0,2.1,0,3.1,0
		c18.9,0,37.8,0,56.6,0c0,0.6,0,1.1,0,1.7c0,4.1,0.8,4.9,4.9,4.9c9.4,0,18.8,0,28.1,0c6.7,0,6.7,0,6.8-6.6c2.4,0,4.8,0,7.3,0
		C472.8,328.6,490.3,328.5,507.8,328.5z"/>
	<path class="st19" d="M507.8,328.5c-17.5,0-35,0-52.5,0c-2.4,0-4.8,0-7.3,0c-13.3,0-26.6,0-39.9,0c-18.9,0-37.8,0-56.6,0
		c-1,0-2.1,0-3.1,0c0-29.4,0-58.8,0-88.1c0-5.4,2.5-7.9,8-7.9c9.8,0,19.6,0,29.4,0c-0.4,3.3-1,6.6-1,9.9c-8.5,0-17,0-25.5,0
		c-3.1,0-4.3,1.1-4.3,4.2c0,23.7,0,47.5,0,71.2c0,2.9,1.2,4.1,4.2,4.1c45.9,0,91.8,0,137.7,0c3,0,4.2-1.2,4.2-4.1
		c0-23.7,0-47.5,0-71.2c0-3.1-1.2-4.2-4.3-4.2c-6.3,0-12.6,0-18.9,0c-0.1-3.3-0.5-6.6-1.1-9.9c7.8,0,15.6,0,23.4,0
		c4.8,0,7.4,2.7,7.5,7.4c0,29,0,58,0,87C507.8,327.4,507.8,328,507.8,328.5z"/>
	<path class="st20" d="M478,242.4c6.3,0,12.6,0,18.9,0c3.1,0,4.3,1.1,4.3,4.2c0,23.7,0,47.5,0,71.2c0,3-1.2,4.1-4.2,4.1
		c-45.9,0-91.8,0-137.7,0c-3,0-4.2-1.2-4.2-4.1c0-23.7,0-47.5,0-71.2c0-3.1,1.2-4.2,4.3-4.2c8.5,0,17,0,25.5,0
		c0,4.4,0.6,8.6,1.8,12.8c0.3,0.9,0.1,1.4-0.7,1.8c-0.6,0.3-1.2,0.7-1.8,1c-2.7,1.6-3,2.4-2.1,5.4c-1.1,1.4-0.3,2.6,0.4,3.8
		c2,3.5,4.1,7,6.1,10.5c1,1.7,2.4,2.2,4.2,1.5c1.1-0.4,2.1-1,3.1-1.6c0.8-0.5,1.5-0.4,2.2,0.3c2.2,2.3,4.6,4.3,7.3,6
		c4.9,3.2,10.1,5.9,16,6.8c0,0.8,0.1,1.6,0.1,2.4c0,0.7-0.1,1.4,0,2.1c0.1,2.1,1.3,3.4,3.3,3.4c4.4,0.1,8.8,0,13.2,0
		c1.6,0,2.7-0.8,3.1-2.4c0.3-1,0.2-2,0.1-3.1c0-0.8,0.1-1.6,0.1-2.3c0.4,0,0.8,0,1.2-0.1c8-2.1,15.1-6,21-11.7
		c1.8-1.7,3-1.7,4.9-0.5c2.8,1.8,4.5,1.2,6.2-1.6c1.9-3.3,3.8-6.7,5.8-10c0.7-1.2,1-2.3,0.2-3.5c0.8-2.9,0.4-4-2.2-5.3
		c-2-1-2.9-2-2-4.6C477.8,250,477.9,246.2,478,242.4z M376.7,295.4c-3.7,0-7.3,0-11,0c-2.5,0-3.9,1.2-4,3.2c0,2,1.5,3.3,3.9,3.3
		c7.3,0,14.6,0,22,0c2.5,0,3.9-1.2,4-3.2c0-2.1-1.5-3.3-4.1-3.3C383.9,295.4,380.3,295.4,376.7,295.4z M479.8,295.4
		c-3.7,0-7.5,0-11.2,0c-2.4,0-3.9,1.3-3.9,3.3c0,2,1.5,3.3,3.9,3.3c7.3,0,14.6,0,22,0c2.5,0,3.9-1.3,3.9-3.3c0-2-1.5-3.3-3.9-3.3
		C487,295.4,483.4,295.4,479.8,295.4z M376.6,315.3c3.7,0,7.3,0,11,0c2.6,0,4.1-1.3,4.1-3.4c-0.1-2-1.5-3.2-4-3.2
		c-7.3,0-14.5,0-21.8,0c-2.6,0-4.1,1.3-4.1,3.4c0.1,2,1.5,3.2,4,3.2C369.4,315.3,373,315.3,376.6,315.3z M479.4,315.3
		c3.7,0,7.5,0,11.2,0c2.4,0,3.9-1.3,3.9-3.3c0-2-1.5-3.2-4-3.2c-7.3,0-14.6,0-22,0c-2.4,0-3.9,1.3-3.9,3.3c0,2,1.5,3.2,4,3.3
		C472.3,315.3,475.8,315.3,479.4,315.3z"/>
	<path class="st16" d="M464.6,242c0.6,18.3-14.9,33.7-33.7,33.5c-18.3-0.2-33.5-16-32.6-33.9c0.1-0.2,0.3-0.5,0.3-0.7
		c1.4-9.2,5.9-16.6,13.5-22c7.2-5.1,15.2-7.2,24-5.8c12.1,1.9,20.5,8.6,25.7,19.6C463.3,235.6,463.8,238.8,464.6,242z M409.9,244.5
		c-0.9,1.5-0.5,2.7,0.7,3.8c3.8,3.8,7.6,7.6,11.4,11.4c2.9,2.8,6.7,2.8,9.5,0c6.7-6.7,13.3-13.4,20.1-20c1.6-1.6,2.3-3.2,1.8-5.3
		c0.5-1.8-0.1-3.2-1.5-4.4c-1.2-1.1-2.2-2.2-3.4-3.3c-2.2-2.2-3.8-2.2-6,0c-4.7,4.7-9.5,9.4-14.2,14.2c-0.5,0.5-0.9,1.2-1.8,1.4
		c-2.1-2.1-4.1-4.2-6.2-6.3c-2.1-2.1-3.7-2-5.9,0.1c-1.1,1.1-2.2,2.3-3.4,3.3C409.3,240.8,409,242.5,409.9,244.5z"/>
	<path class="st21" d="M464.6,242c-0.7-3.2-1.3-6.4-2.7-9.4c-5.2-11-13.6-17.7-25.7-19.6c-8.8-1.4-16.8,0.7-24,5.8
		c-7.6,5.4-12.1,12.8-13.5,22c0,0.3-0.2,0.5-0.3,0.7c0-10.1,4.1-18.4,11.8-24.7c19.7-16.1,48.4-6,53.9,18.9
		C464.5,237.9,464.9,239.9,464.6,242z"/>
	<path class="st22" d="M421.4,290.9c-5.9-0.9-11.1-3.6-16-6.8c-2.7-1.7-5.1-3.7-7.3-6c-0.7-0.7-1.3-0.8-2.2-0.3
		c-1,0.6-2,1.2-3.1,1.6c-1.8,0.7-3.2,0.2-4.2-1.5c-2-3.5-4.1-7-6.1-10.5c-0.7-1.2-1.5-2.4-0.4-3.8c2,3.3,3.9,6.6,5.9,9.9
		c1.9,3.3,3.1,3.7,6.3,1.8c2-1.3,3.2-1.1,5,0.6c5.5,5.4,12,9.1,19.5,11.2C421.6,287.8,421.6,287.8,421.4,290.9z"/>
	<path class="st22" d="M480.8,263.4c0.8,1.2,0.5,2.3-0.2,3.5c-2,3.3-3.9,6.6-5.8,10c-1.6,2.9-3.4,3.4-6.2,1.6
		c-1.8-1.2-3.1-1.2-4.9,0.5c-5.9,5.7-13,9.6-21,11.7c-0.4,0.1-0.8,0.1-1.2,0.1c-0.2-3.1-0.2-3.1,2.8-3.9c7.7-2.2,14.4-6.3,20.1-11.9
		c1-1,1.9-1.5,3.1-0.4c0.5,0.4,1.1,0.6,1.6,0.9c2.3,1.3,3.8,0.9,5.2-1.4C476.5,270.6,478.6,267,480.8,263.4z"/>
	<path class="st22" d="M441.3,293.2c0.1,1,0.2,2-0.1,3.1c-0.4,1.6-1.5,2.4-3.1,2.4c-4.4,0-8.8,0-13.2,0c-2.1,0-3.3-1.3-3.3-3.4
		c0-0.7,0-1.4,0-2.1c1,1.7,2.4,2.2,4.3,2.2c3.7-0.1,7.3-0.1,11,0C438.8,295.5,440.4,295,441.3,293.2z"/>
	<path class="st23" d="M408.2,328.6c13.3,0,26.6,0,39.9,0c-0.1,6.6-0.1,6.6-6.8,6.6c-9.4,0-18.8,0-28.1,0c-4.1,0-4.9-0.8-4.9-4.9
		C408.2,329.7,408.2,329.2,408.2,328.6z"/>
	<path class="st16" d="M376.7,295.4c3.6,0,7.2,0,10.8,0c2.6,0,4.1,1.3,4.1,3.3c0,2-1.5,3.2-4,3.2c-7.3,0-14.6,0-22,0
		c-2.4,0-3.9-1.3-3.9-3.3c0-2,1.5-3.2,4-3.2C369.4,295.4,373.1,295.4,376.7,295.4z"/>
	<path class="st16" d="M479.8,295.4c3.6,0,7.2,0,10.8,0c2.4,0,3.9,1.3,3.9,3.3c0,2-1.5,3.3-3.9,3.3c-7.3,0-14.6,0-22,0
		c-2.4,0-3.9-1.3-3.9-3.3c0-2,1.5-3.3,3.9-3.3C472.4,295.4,476.1,295.4,479.8,295.4z"/>
	<path class="st16" d="M376.6,315.3c-3.6,0-7.2,0-10.8,0c-2.5,0-4-1.2-4-3.2c-0.1-2.1,1.5-3.4,4.1-3.4c7.3,0,14.5,0,21.8,0
		c2.5,0,4,1.2,4,3.2c0.1,2.1-1.5,3.4-4.1,3.4C383.9,315.3,380.2,315.3,376.6,315.3z"/>
	<path class="st16" d="M479.4,315.3c-3.6,0-7.2,0-10.8,0c-2.5,0-3.9-1.3-4-3.3c0-2,1.5-3.3,3.9-3.3c7.3,0,14.6,0,22,0
		c2.5,0,3.9,1.2,4,3.2c0,2-1.5,3.3-3.9,3.3C486.9,315.3,483.2,315.3,479.4,315.3z"/>
	<path class="st19" d="M409.9,244.5c-0.9-2-0.6-3.7,1.1-5.2c1.2-1,2.2-2.2,3.4-3.3c2.1-2.1,3.8-2.1,5.9-0.1c2.1,2.1,4.2,4.2,6.2,6.3
		c0.9-0.2,1.3-0.9,1.8-1.4c4.7-4.7,9.5-9.4,14.2-14.2c2.2-2.2,3.8-2.2,6,0c1.1,1.1,2.2,2.3,3.4,3.3c1.4,1.2,2,2.6,1.5,4.4
		c-0.5,0.6-1,1.2-1.5,1.7c-6.6,6.6-13.2,13.2-19.8,19.8c-3.5,3.5-7.1,3.4-10.7,0C417.6,252,413.7,248.2,409.9,244.5z"/>
	<path class="st21" d="M409.9,244.5c3.8,3.8,7.7,7.5,11.5,11.3c3.5,3.5,7.2,3.5,10.7,0c6.6-6.6,13.2-13.2,19.8-19.8
		c0.5-0.5,1-1.1,1.5-1.7c0.5,2.1-0.2,3.7-1.8,5.3c-6.8,6.6-13.4,13.3-20.1,20c-2.8,2.8-6.6,2.9-9.5,0c-3.8-3.8-7.6-7.6-11.4-11.4
		C409.4,247.1,409,245.9,409.9,244.5z"/>
</g>
<g>
	<path class="st24" d="M780.4,120.2c-0.9,0-1.8,0.1-2.7,0.1c-23.7,0-47.4,0-71.2,0c-0.1-0.3-0.3-0.5-0.4-0.8
		c-3.1-7.6-10.8-11.6-18.7-9.8c-5.9,1.4-9.6,5.1-11.7,10.6c-8.2,0-16.4,0-24.6,0c-0.8-1.6,0.2-3.3-0.7-4.8c3-4.3,6.1-8.5,9-12.8
		c8.4-12.4,16.2-25.1,22.3-38.9c4-9.1,5-18.2,1.4-27.7c-2.3-5.8-6.1-10.6-10.5-14.8c10,0,20.1,0,30.1,0c0.5,0.9,0.3,1.8,0.3,2.6
		c0,13,0,26,0,39c0,2.8,0,2.8,2.6,2.1c1.1-0.3,1.7,0.4,2.2,1.1c1,1.4,2,1.5,3,0c1.1-1.6,2.2-1.7,3.3,0c1,1.4,2,1.5,3,0
		c1.1-1.6,2.2-1.7,3.3,0c1,1.4,2,1.5,3,0c0.8-1.1,1.6-1.6,3-0.7c1,0.7,1.7,0,1.8-1.1c0.1-0.6,0-1.2,0-1.8c0-12.8,0-25.6,0-38.3
		c0-0.8,0-1.7,0-2.7c17.4,0,34.6,0,52.2,0c0,8.4,0,16.8,0,25.2c0,5.7,0,11.4,0,17.2c-0.1,9.6-0.1,19.2-0.2,28.8
		C780.2,101.8,780.4,111,780.4,120.2z M757.1,106c3.5,0,7,0,10.4,0c2.3,0,3.3-1,3.4-3.3c0.1-4.8,0.1-9.5,0-14.3
		c0-2.3-1.1-3.3-3.4-3.3c-6.8,0-13.6,0-20.4,0c-2.5,0-3.4,1-3.4,3.5c0,4.7,0,9.4,0,14.1c0,2.5,0.9,3.4,3.4,3.4
		C750.4,106.1,753.8,106,757.1,106z"/>
	<path class="st25" d="M672.5,21.4c4.4,4.3,8.2,9,10.5,14.8c3.7,9.5,2.6,18.6-1.4,27.7c-6,13.8-13.9,26.4-22.3,38.9
		c-2.9,4.3-6,8.5-9,12.8c-0.7,0.9-1.3,1.9-2,2.8c-1.6,2.1-2.9,2.1-4.5,0c-5.1-6.9-10-13.9-14.6-21c-7.2-11.1-13.8-22.5-19.2-34.6
		c-10.2-23,6.3-45.8,28.1-49.9C650.9,10.4,662.3,13.4,672.5,21.4z M646.3,31.2c-10.5,0-19,7.9-19.1,17.8
		c-0.1,9.8,8.4,18.1,18.8,18.2c10.5,0.1,19.2-8,19.2-18C665.2,39.3,656.8,31.3,646.3,31.2z"/>
	<path class="st25" d="M780.4,120.2c0-9.2-0.2-18.4-0.1-27.6c0.1-9.6,0-19.2,0.2-28.8c0.1-5.7,0-11.4,0-17.2
		c8.9,1.9,17.7,3.8,26.6,5.8c6.4,1.4,12.8,2.9,19.2,4.3c1.3,0.3,2.3,0.7,2.4,2.2c0.1,1.6-0.9,2.3-2.3,2.5c-11.3,0-22.6,0-33.9,0
		c0,9.8,0,19.3,0,28.8c0.3,0.1,0.5,0.2,0.7,0.2c13.5,0,26.9,0,40.4,0c3.8,0.9,4.2,1.8,3.6,8.2c-1.7,0-3.5,0-5.3,0
		c-3.1-0.1-3.2,0-3.2,3.1c0,0.7,0,1.4,0,2c0,2.7,0.4,3,3.3,2.9c1.7,0,3.4,0,5.3,0c0,3.7,0,7.2,0,10.9c-2.3-0.3-4.2,0.1-5.4,2.3
		c-0.5,0.9-1.3,0.5-2,0.5c-4.9,0-9.8,0-14.7,0c-1.2-3.1-2.9-5.8-5.6-7.8c-7.4-5.7-20.8-4.3-25.2,7.8
		C783,120.3,781.7,120.3,780.4,120.2z M819.4,98.5c0.8,0,1.5,0,2.3,0c1,0,1.9-0.5,1.9-1.5c0-1.1-0.8-1.6-1.8-1.6c-1.7,0-3.3,0-5,0.1
		c-0.8,0.1-1.7,0.5-1.6,1.5c0.1,0.9,0.8,1.4,1.8,1.4C817.7,98.6,818.6,98.5,819.4,98.5z"/>
	<path class="st26" d="M833.6,90.4c-13.5,0-26.9,0-40.4,0c-0.2,0-0.4-0.1-0.7-0.2c0-9.5,0-19,0-28.8c11.3,0,22.6,0,33.9,0
		C828.8,71.1,831.2,80.7,833.6,90.4z"/>
	<path class="st27" d="M675.7,120.3c2.2-5.5,5.9-9.2,11.7-10.6c7.9-1.9,15.7,2.2,18.7,9.8c0.1,0.3,0.3,0.5,0.4,0.8
		c2.5,11.3-6.4,19-15.2,19c-11.4,0-17.9-10-15.8-18.1C675.7,121,675.7,120.6,675.7,120.3z M691.2,116.2c-4.9,0-8.7,3.6-8.7,8.2
		c0,4.6,3.9,8.3,8.7,8.2c4.7,0,8.5-3.6,8.6-8.1C699.8,119.8,696.1,116.2,691.2,116.2z"/>
	<path class="st27" d="M784.3,120.4c4.4-12.1,17.8-13.5,25.2-7.8c2.7,2,4.4,4.7,5.6,7.8c2.2,10-4.4,16.8-11.4,18.5
		c-8.5,2.1-17-2.6-19.4-10.7C783.6,125.6,783.8,123,784.3,120.4z M808.4,124.4c0-4.6-3.8-8.2-8.7-8.2c-4.8,0-8.7,3.7-8.7,8.3
		c0.1,4.4,3.9,8.1,8.6,8.1C804.5,132.6,808.4,128.9,808.4,124.4z"/>
	<path class="st28" d="M831.9,106.6c-2.9,0.1-3.3-0.2-3.3-2.9c0-0.7,0-1.4,0-2c0-3,0.2-3.2,3.2-3.1
		C831.9,101.3,831.9,103.9,831.9,106.6z"/>
	<path class="st27" d="M757.1,106c-3.3,0-6.7,0-10,0c-2.6,0-3.4-0.9-3.4-3.4c0-4.7,0-9.4,0-14.1c0-2.5,0.9-3.5,3.4-3.5
		c6.8,0,13.6,0,20.4,0c2.3,0,3.4,1,3.4,3.3c0.1,4.8,0.1,9.5,0,14.3c0,2.3-1,3.3-3.4,3.3C764,106.1,760.6,106,757.1,106z"/>
	<path class="st16" d="M646.3,31.2c10.5,0,18.9,8.1,18.9,18c0,10-8.7,18.1-19.2,18c-10.4-0.1-18.9-8.3-18.8-18.2
		C627.2,39.1,635.8,31.2,646.3,31.2z"/>
	<path class="st28" d="M819.4,98.5c-0.8,0-1.7,0-2.5,0c-0.9,0-1.6-0.5-1.8-1.4c-0.1-1.1,0.8-1.5,1.6-1.5c1.6-0.2,3.3-0.1,5-0.1
		c1,0,1.9,0.5,1.8,1.6c0,1-0.9,1.5-1.9,1.5C820.9,98.5,820.2,98.5,819.4,98.5z"/>
	<path class="st16" d="M691.2,116.2c4.9,0,8.6,3.6,8.6,8.3c-0.1,4.5-3.9,8.1-8.6,8.1c-4.8,0-8.7-3.7-8.7-8.2
		C682.5,119.7,686.3,116.1,691.2,116.2z"/>
	<path class="st16" d="M808.4,124.4c0,4.6-3.9,8.2-8.7,8.2c-4.7,0-8.6-3.7-8.6-8.1c-0.1-4.6,3.8-8.2,8.7-8.3
		C804.6,116.2,808.4,119.7,808.4,124.4z"/>
</g>
<g>
	<path class="st29" d="M895.9,230.2c2.5-4.2,4.4-8.6,6.7-12.9c0.8-1.4,1.3-3,2.6-4.1c0.7,0,1.4,0,2.2,0c2.3,2.1,3.2,5,4.4,7.7
		c-0.7,0-0.8,0.6-1,1c-0.9,1.8-1.9,3.5-2.7,5.3c-0.4,0.9-1,1.5-1.9,1.6C902.6,229.4,899.3,230.2,895.9,230.2z"/>
	<path class="st30" d="M938.8,330.4c1.8,0.8,3.7,1.5,4.7,3.4c0.7,1.3,1.2,2.6,1.1,4.1c-5.8,0-11.5,0-17.3,0c-1.5,0-2.6,0.5-3.3,1.8
		c-0.6,1.2-0.4,2.3,0.4,3.3c0.8,1.1,2,1.3,3.3,1.3c3.3,0,6.6,0,9.9,0c3.2,1.3,5.3,3.4,5.2,7.1c-5,0-10.1,0-15.1,0
		c-1.3,0-2.5,0.3-3.3,1.4c-0.8,1-1,2.2-0.3,3.3c0.7,1.2,1.7,1.7,3,1.8c3,0,6,0,9,0c1.7,0.6,3.3,1.5,4.3,3.1c-0.3,0-0.6,0.1-0.8,0.4
		c-1.6,1.6-3.5,2.1-5.7,2.1c-14-0.1-28,0-42,0c-2.8,0-5.4-0.7-7.7-2.3c-1.7-1.3-3.3-2.8-4.9-4.2c-1.5-1.3-3-2.4-5-2.8
		c-2.3-0.4-4.5-0.1-6.8-0.2c0-1.3-0.1-2.7-0.1-4c0-11,0-22,0.1-33c1.3,0,2.6-0.1,3.9,0c4.7,0.4,8.8-1.1,12.1-4.3
		c3.2-3.1,6.7-6,9.1-9.8c2.2-3.5,3.3-7.2,3.9-11.2c0.3-1.8,0.3-3.6,1-5.3c1.5-3.5,5.3-5.6,8.9-4.9c4,0.8,6.7,4.4,6.5,7.9
		c-0.2,4.4,0.2,8.7-0.4,13.1c-0.4,2.9-1.5,5.7-2.3,8.5c-0.3,1.2-0.8,2.4-1.2,3.7c-0.6,2-0.3,2.4,1.7,2.4c9,0,17.9,0.1,26.9,0
		c4.1,0,7.9,3.2,7.3,7.4c-5.9,0-11.8,0-17.7,0c-2.2,0-3.6,1.2-3.6,3.1c0,1.7,1.6,3,3.6,3.1C931.1,330.4,935,330.4,938.8,330.4z"/>
	<path class="st31" d="M867.5,316.8c0,11,0,22-0.1,33c0,1.3,0,2.7,0.1,4c0,2.7,0,5.3,0,8c-0.2,3.8-1.2,4.7-5,4.7c-5.3,0-10.7,0-16,0
		c-1.7-1.1-2.2-2.6-2.2-4.7c0.1-14.3,0.1-28.5,0-42.8c0-2.2-0.3-4.5,1.8-6.1c0,0,0-0.1,0-0.1c5.7,0,11.5-0.1,17.2,0
		C866,312.9,867.1,314,867.5,316.8z"/>
	<path class="st32" d="M895.9,230.2c3.4,0,6.8-0.9,10.2-1.3c0.9-0.1,1.5-0.8,1.9-1.6c0.9-1.8,1.8-3.6,2.7-5.3c0.2-0.4,0.3-1,1-1
		c1.5,2.4,2.6,5,3.9,7.5c0.7,1.5,1.7,2.3,3.4,2.5c4.9,0.6,9.8,1.4,14.6,2.1c0.3,0,0.5,0.1,0.8,0.1c1.2,0.2,2.2,0.7,2.5,2
		c0.3,1.2-0.3,2.1-1.1,2.9c-2.5,2.4-5.1,4.8-7.6,7.2c-1.2,1.2-2.4,2.4-3.7,3.5c-1.1,1-1.3,2.1-1,3.5c0.9,4.9,1.8,9.8,2.6,14.7
		c0.2,1.2,0.2,2.4-1,3.2c-1.1,0.8-2.2,0.5-3.3-0.1c-4.4-2.3-8.8-4.5-13.1-6.8c-1.7-0.9-3.1-0.9-4.8,0c-2,1.1-4.1,2.1-6.2,3.1
		c0.5-4.8,1.4-9.5,2.4-14.2c0.6-2.7,0.2-4.7-1.9-6.5c-3.4-3-6.6-6.1-9.9-9.2c-1.8-1.7-1.8-2.5-0.5-4.6
		C890.5,231.2,893.3,231.5,895.9,230.2z"/>
	<path class="st33" d="M867.5,361.8c0-2.7,0-5.3,0-8c2.2,0.1,4.5-0.2,6.8,0.2c2,0.4,3.6,1.5,5,2.8c1.6,1.4,3.2,2.9,4.9,4.2
		c2.2,1.7,4.9,2.3,7.7,2.3c14,0,28,0,42,0c2.2,0,4.1-0.5,5.7-2.1c0.2-0.2,0.5-0.4,0.8-0.4c3.2,5.2-1.2,10.7-6.2,10.6
		c-13.8-0.2-27.7-0.1-41.5-0.1c-4.3,0-7.9-1.3-11-4.4c-1.1-1.1-2.4-2.1-3.6-3.1c-1.8-1.5-3.9-2.2-6.3-2.1
		C870.4,361.9,868.9,361.8,867.5,361.8z"/>
	<path class="st34" d="M846.1,312.8c0,0.1,0,0.1,0,0.1c-2.1,1.6-1.8,3.9-1.8,6.1c0,14.3,0.1,28.5,0,42.8c0,2.1,0.5,3.6,2.2,4.7
		c-2.7,0-5.5,0.1-8.2,0c-2.2,0-3.5-1.3-3.7-3.5c0-0.5,0-0.9,0-1.4c0-14.6,0-29.2,0-43.8c0-3.8,1.2-5,5.1-5
		C841.8,312.8,843.9,312.8,846.1,312.8z"/>
	<path class="st29" d="M887.8,231.8c-1.3,2-1.3,2.9,0.5,4.6c3.3,3.1,6.5,6.3,9.9,9.2c2.2,1.9,2.5,3.9,1.9,6.5
		c-1,4.7-1.9,9.4-2.4,14.2c-2.5,1.3-5,2.6-7.5,4c-1,0.5-2,0.4-2.9-0.3c-0.9-0.7-1.2-1.6-1-2.7c0.9-4.8,1.7-9.7,2.6-14.5
		c0.4-1.8,0-3.2-1.4-4.5c-3.6-3.3-7.1-6.7-10.6-10.1c-0.9-0.9-1.7-1.8-1.2-3.2c0.5-1.4,1.7-1.7,3.1-1.9
		C881.8,232.6,884.8,232.2,887.8,231.8z"/>
	<path class="st32" d="M846.1,246c0.3-0.1,0.5-0.3,0.8-0.4c2.4-0.3,4.8-0.5,7.2-1c1.5-0.3,3.1-0.1,4.3-1.1c0.8,2.3,2.6,2.7,4.7,2.8
		c2.3,0.2,4.6,0.6,6.9,0.9c0.9,0.1,1.8,0.3,2.1,1.3c0.3,1-0.4,1.5-1,2.1c-2,2-4,4-6.2,5.8c-1,0.9-1.2,1.9-1,3.2
		c0.5,2.5,0.9,5.1,1.3,7.6c0.2,1,0.6,2.1-0.4,2.8c-1.1,0.7-2,0.1-3-0.4c-2.5-1.3-4.9-2.5-7.4-3.8c-0.6-0.3-1.2-0.5-1.9-0.4
		c0.1-2.7,0.8-5.2,1.2-7.9c0.2-1.2-0.1-2.1-0.9-2.9c-2.1-2-4.1-4-6.3-5.9C845.7,248.1,845.5,247.2,846.1,246z"/>
	<path class="st32" d="M952.1,246c0.3-0.2,0.6-0.4,0.9-0.7c0.1,0.1,0.3,0.3,0.4,0.3c3.7-0.7,7.5-0.8,11.1-1.8c1.1,2.9,3.8,2.3,6,2.7
		c1.8,0.4,3.7,0.5,5.5,0.8c0.8,0.1,1.7,0.2,2,1.2c0.3,1-0.2,1.6-0.9,2.3c-2.1,2-4.2,4-6.3,6c-0.8,0.8-1.2,1.5-0.9,2.7
		c0.6,2.8,1,5.7,1.5,8.5c0.1,0.8,0.3,1.7-0.5,2.3c-0.8,0.6-1.6,0.3-2.3-0.1c-2.6-1.3-5.2-2.7-7.8-4c-0.7-0.4-1.4-0.7-2.2-0.6
		c-0.1-1.9,0.5-3.6,0.8-5.4c0.4-2.3,1.1-4.6-1.4-6.2c-2.1-1.4-3.6-3.5-5.5-5.1C951.6,247.9,951.2,247.1,952.1,246z"/>
	<path class="st29" d="M846.1,246c-0.6,1.1-0.3,2,0.6,2.9c2.1,1.9,4.2,4,6.3,5.9c0.9,0.8,1.1,1.7,0.9,2.9c-0.4,2.6-1.2,5.2-1.2,7.9
		c-3,1.6-6,3.3-9.1,4.8c-1.5,0.8-2.8-0.3-2.5-2c0.5-3,1-6,1.6-8.9c0.2-1,0-1.8-0.8-2.5c-2.3-2.1-4.5-4.2-6.7-6.4
		c-1.4-1.4-1-2.8,0.9-3.1C839.4,246.9,842.7,246.5,846.1,246z"/>
	<path class="st29" d="M952.1,246c-0.8,1.1-0.5,1.9,0.4,2.7c1.9,1.7,3.4,3.7,5.5,5.1c2.5,1.7,1.8,3.9,1.4,6.2
		c-0.3,1.8-0.8,3.6-0.8,5.4c-3,1.8-6.1,3.3-9.3,4.8c-1.5,0.7-2.7-0.4-2.4-2.1c0.5-3,1-6,1.6-8.9c0.2-1.1-0.1-1.8-0.8-2.5
		c-2.1-2-4.2-4-6.3-6c-0.7-0.7-1.4-1.3-1.1-2.4c0.3-1.1,1.3-1.2,2.3-1.3C945.8,246.8,948.9,246.4,952.1,246z"/>
	<path class="st33" d="M937.6,344.3c-3.3,0-6.6,0-9.9,0c-1.3,0-2.5-0.3-3.3-1.3c-0.8-1-1-2.1-0.4-3.3c0.7-1.3,1.9-1.8,3.3-1.8
		c5.8,0,11.5,0,17.3,0C944.3,342,940.7,344.2,937.6,344.3z"/>
	<path class="st33" d="M938.8,330.4c-3.9,0-7.7,0-11.6,0c-1.9,0-3.6-1.4-3.6-3.1c0-1.9,1.3-3.1,3.6-3.1c5.9,0,11.8,0,17.7,0
		C944.9,327.5,942.3,330.1,938.8,330.4z"/>
	<path class="st33" d="M936.1,357.9c-3,0-6,0-9,0c-1.3,0-2.4-0.6-3-1.8c-0.7-1.2-0.4-2.3,0.3-3.3c0.8-1.1,2-1.4,3.3-1.4
		c5,0,10.1,0,15.1,0C942.4,355.1,939.9,357.5,936.1,357.9z"/>
	<path class="st29" d="M964.5,243.8c-3.6,1-7.4,1.1-11.1,1.8c-0.1,0-0.2-0.2-0.4-0.3c1.5-2.9,2.9-5.8,4.4-8.7
		c0.4-0.8,0.8-1.6,1.9-1.6c1.1,0,1.5,0.8,1.9,1.6C962.2,239.1,963.7,241.3,964.5,243.8z"/>
	<path class="st29" d="M858.4,243.5c-1.3,1.1-2.9,0.9-4.3,1.1c-2.4,0.4-4.8,0.7-7.2,1c1.5-3,3-6,4.5-8.9c0.4-0.8,0.8-1.6,1.9-1.6
		c1.1,0,1.5,0.8,1.9,1.6C856.2,239,857.6,241.1,858.4,243.5z"/>
</g>
</svg>
